<?xml version="1.0" encoding="UTF-8"?>
<svg width="318px" height="256px" viewBox="0 0 318 256" version="1.1" xmlns="http://www.w3.org/2000/svg" xmlns:xlink="http://www.w3.org/1999/xlink">
    <!-- Generator: Sketch 48.2 (47327) - http://www.bohemiancoding.com/sketch -->
    <title>pic</title>
    <desc>Created with Sketch.</desc>
    <defs></defs>
    <g id="Unsuccess-screen-Copy-5" stroke="none" stroke-width="1" fill="none" fill-rule="evenodd" transform="translate(-26.000000, -110.000000)">
        <g id="pic" transform="translate(26.000000, 110.000000)">
            <g id="Group-2-Copy-2" transform="translate(17.000000, 34.000000)">
                <path d="M83.2472959,7.56648271 L158.70244,159.008069 C160.777232,163.172261 159.083438,168.229957 154.919245,170.304749 C153.752284,170.886182 152.466291,171.188811 151.162503,171.188811 L7.79215159,171.188811 C3.13970497,171.188811 -0.631848212,167.417258 -0.631848212,162.764811 C-0.631848212,161.461023 -0.329219471,160.17503 0.252214118,159.008069 L75.7073584,7.56648271 C76.7447543,5.48438647 79.2736023,4.63748947 81.3556985,5.67488531 C82.1750302,6.08311396 82.8390673,6.74715099 83.2472959,7.56648271 Z" id="Rectangle-15" fill="#9BC8FE"></path>
                <path d="M83.2670603,7.60615068 L98.9458323,39.0740926 L60.0643382,39.0740926 C67.3082382,24.5352866 72.5283376,14.0476403 75.7246363,7.61115362 L75.7246389,7.61115492 C76.7592703,5.52768539 79.2869905,4.67743406 81.37046,5.71206541 C82.1920452,6.12005688 82.857979,6.78510761 83.2670603,7.60615068 Z" id="Rectangle-15-Copy-2" fill="#FFFFFF"></path>
                <path d="M64.919649,48.8341506 C68.2864429,48.8341506 71.0157686,46.095216 71.0157686,42.7165689 C71.0157686,39.3379218 68.2864429,36.5989872 64.919649,36.5989872 C61.5528551,36.5989872 58.8235294,39.3379218 58.8235294,42.7165689 C58.8235294,46.095216 61.5528551,48.8341506 64.919649,48.8341506 Z" id="Oval-17" fill="#FFFFFF"></path>
                <path d="M55.5078843,48.8341506 C58.8746782,48.8341506 61.6040039,46.095216 61.6040039,42.7165689 C61.6040039,41.2358409 61.0797758,39.877984 60.2074076,38.8197061 L55.1102246,48.8213432 C55.2416869,48.8298378 55.3742837,48.8341506 55.5078843,48.8341506 Z" id="Oval-17-Copy-5" fill="#FFFFFF"></path>
                <path d="M74.3314137,48.8341506 C77.6982076,48.8341506 80.4275333,46.095216 80.4275333,42.7165689 C80.4275333,39.3379218 77.6982076,36.5989872 74.3314137,36.5989872 C70.9646198,36.5989872 68.2352941,39.3379218 68.2352941,42.7165689 C68.2352941,46.095216 70.9646198,48.8341506 74.3314137,48.8341506 Z" id="Oval-17-Copy" fill="#FFFFFF"></path>
                <path d="M83.7431784,48.8341506 C87.1099723,48.8341506 89.839298,46.095216 89.839298,42.7165689 C89.839298,39.3379218 87.1099723,36.5989872 83.7431784,36.5989872 C80.3763845,36.5989872 77.6470588,39.3379218 77.6470588,42.7165689 C77.6470588,46.095216 80.3763845,48.8341506 83.7431784,48.8341506 Z" id="Oval-17-Copy-2" fill="#FFFFFF"></path>
                <path d="M93.1549431,48.8341506 C96.521737,48.8341506 99.2510627,46.095216 99.2510627,42.7165689 C99.2510627,39.3379218 96.521737,36.5989872 93.1549431,36.5989872 C89.7881492,36.5989872 87.0588235,39.3379218 87.0588235,42.7165689 C87.0588235,46.095216 89.7881492,48.8341506 93.1549431,48.8341506 Z" id="Oval-17-Copy-3" fill="#FFFFFF"></path>
                <path d="M102.566708,48.8341506 C102.984894,48.8341506 103.393245,48.7918947 103.787753,48.7114055 L98.600417,38.070739 C97.296631,39.1927199 96.4705882,40.8578385 96.4705882,42.7165689 C96.4705882,46.095216 99.1999139,48.8341506 102.566708,48.8341506 Z" id="Oval-17-Copy-4" fill="#FFFFFF"></path>
            </g>
            <g id="Group" transform="translate(234.000000, 0.000000)" fill="#C6EAF9">
                <ellipse id="Oval-29" transform="translate(53.685871, 17.186441) scale(-1, 1) translate(-53.685871, -17.186441) " cx="53.6858711" cy="17.1864407" rx="17.3223594" ry="17.1864407"></ellipse>
                <path d="M32.3660441,37.6599823 C41.932919,37.6599823 49.6884035,33.2884193 49.6884035,23.7966102 C49.6884035,14.3048011 41.932919,6.61016949 32.3660441,6.61016949 C22.7991692,6.61016949 15.0436847,14.3048011 15.0436847,23.7966102 C15.0436847,33.2884193 22.7991692,37.6599823 32.3660441,37.6599823 Z" id="Oval-29-Copy" transform="translate(32.366044, 22.135076) scale(-1, 1) translate(-32.366044, -22.135076) "></path>
                <path d="M19.040669,38.6668369 C19.2281856,38.5845457 19.4078168,38.4801612 19.5770784,38.3444724 C22.2979477,36.1632836 24.0379867,32.8256242 24.0379867,29.0847458 C24.0379867,22.5134933 18.6688051,17.1864407 12.045584,17.1864407 C5.42236294,17.1864407 0.0531813865,22.5134933 0.0531813865,29.0847458 C0.0531813865,33.4655807 6.38234392,36.6596111 19.040669,38.6668369 Z" id="Oval-29-Copy-2" transform="translate(12.045584, 27.926639) scale(-1, 1) translate(-12.045584, -27.926639) "></path>
                <path d="M68.8121566,31.4532174 C69.9749509,31.4532174 72.8309609,39.1442357 73.9034225,38.8588408 C79.4487085,37.3831733 83.5328211,32.3450698 83.5328211,26.3569105 C83.5328211,19.2106377 77.7162077,13.4174389 70.5410515,13.4174389 C65.0794454,13.4174389 60.4049782,16.7740147 58.4837878,21.528943 C58.4486238,21.6159737 64.6893538,31.4532174 68.8121566,31.4532174 Z" id="Oval-29-Copy-3" transform="translate(71.008230, 26.142015) scale(-1, 1) rotate(-90.000000) translate(-71.008230, -26.142015) "></path>
                <polygon id="Rectangle-39-Copy" points="5 28 74 28 75.6145935 38.6631622 5.03042603 38.6631622"></polygon>
            </g>
            <g id="Group-2-Copy-2" transform="translate(27.000000, 82.000000) scale(-1, 1) translate(-27.000000, -82.000000) translate(0.000000, 67.000000)" fill="#C6EAF9">
                <ellipse id="Oval-9" cx="10.3235294" cy="19.4594595" rx="10.3235294" ry="10.5405405"></ellipse>
                <ellipse id="Oval-9-Copy" cx="28.1911765" cy="15" rx="14.6911765" ry="15"></ellipse>
                <rect id="Rectangle-7" x="3.17647059" y="17.027027" width="50.8235294" height="12.972973" rx="6.48648649"></rect>
            </g>
            <g id="Group-2-Copy" transform="translate(139.000000, 47.000000)">
                <path d="M78.9551842,7.84822273 L153.607103,156.231485 C154.252457,157.514233 153.735746,159.077268 152.452997,159.722622 C152.090477,159.905007 151.690296,160 151.284482,160 L8.85354002,160 C3.97134288,160 0.013540101,156.042197 0.013540101,151.16 C0.013540101,149.78023 0.336517974,148.419617 0.956626571,147.187047 L71.0582708,7.84822273 C72.1553715,5.6675503 74.8125316,4.78914186 76.9932041,5.88624257 C77.8408378,6.3126888 78.528738,7.00058904 78.9551842,7.84822273 Z" id="Rectangle-15" fill="#C6EAF9"></path>
                <path d="M78.9744601,7.88653673 L93.3801293,36.5202304 L56.6857192,36.5202304 C63.2351582,23.5021174 68.0316288,13.9591527 71.0751311,7.89133634 L71.075125,7.8913333 C72.1695783,5.70932678 74.8256738,4.82769072 77.0076803,5.92214404 C77.8574735,6.34838426 78.5471882,7.03726186 78.9744601,7.88653673 Z" id="Rectangle-15-Copy-2" fill="#FFFFFF"></path>
                <path d="M61.2679188,45.6423761 C64.4453305,45.6423761 67.0211316,43.0824568 67.0211316,39.9246363 C67.0211316,36.7668158 64.4453305,34.2068966 61.2679188,34.2068966 C58.090507,34.2068966 55.5147059,36.7668158 55.5147059,39.9246363 C55.5147059,43.0824568 58.090507,45.6423761 61.2679188,45.6423761 Z" id="Oval-17" fill="#FFFFFF"></path>
                <path d="M52.3855658,45.6423761 C55.5629775,45.6423761 58.1387787,43.0824568 58.1387787,39.9246363 C58.1387787,38.5406879 57.6440384,37.2715799 56.8207409,36.2824704 L52.0102745,45.6304058 C52.134342,45.6383451 52.2594803,45.6423761 52.3855658,45.6423761 Z" id="Oval-17-Copy-5" fill="#FFFFFF"></path>
                <path d="M70.1502717,45.6423761 C73.3276834,45.6423761 75.9034846,43.0824568 75.9034846,39.9246363 C75.9034846,36.7668158 73.3276834,34.2068966 70.1502717,34.2068966 C66.97286,34.2068966 64.3970588,36.7668158 64.3970588,39.9246363 C64.3970588,43.0824568 66.97286,45.6423761 70.1502717,45.6423761 Z" id="Oval-17-Copy" fill="#FFFFFF"></path>
                <path d="M79.0326246,45.6423761 C82.2100364,45.6423761 84.7858375,43.0824568 84.7858375,39.9246363 C84.7858375,36.7668158 82.2100364,34.2068966 79.0326246,34.2068966 C75.8552129,34.2068966 73.2794118,36.7668158 73.2794118,39.9246363 C73.2794118,43.0824568 75.8552129,45.6423761 79.0326246,45.6423761 Z" id="Oval-17-Copy-2" fill="#FFFFFF"></path>
                <path d="M87.9149776,45.6423761 C91.0923893,45.6423761 93.6681905,43.0824568 93.6681905,39.9246363 C93.6681905,36.7668158 91.0923893,34.2068966 87.9149776,34.2068966 C84.7375658,34.2068966 82.1617647,36.7668158 82.1617647,39.9246363 C82.1617647,43.0824568 84.7375658,45.6423761 87.9149776,45.6423761 Z" id="Oval-17-Copy-3" fill="#FFFFFF"></path>
                <path d="M96.7973305,45.6423761 C97.1919937,45.6423761 97.5773753,45.602882 97.9496922,45.5276535 L93.0541435,35.5824554 C91.8236955,36.6311043 91.0441176,38.1873915 91.0441176,39.9246363 C91.0441176,43.0824568 93.6199188,45.6423761 96.7973305,45.6423761 Z" id="Oval-17-Copy-4" fill="#FFFFFF"></path>
            </g>
            <g id="Group-2" transform="translate(72.000000, 19.000000)">
                <path d="M92.5692827,9.25984902 L180.388126,184.23372 C181.032245,185.517089 180.514031,187.079626 179.230662,187.723745 C178.868721,187.905402 178.469351,188 178.064382,188 L-2.22079533,188 C-3.65673563,188 -4.82079524,186.83594 -4.82079524,185.4 C-4.82079524,184.995031 -4.72619692,184.59566 -4.5445401,184.23372 L83.2743036,9.25984902 C84.5625413,6.69311143 87.6876162,5.65668244 90.2543538,6.94492009 C91.2551107,7.44719691 92.0670059,8.25909206 92.5692827,9.25984902 Z" id="Rectangle-15" fill="#C6EAF9"></path>
                <path d="M92.8455379,9.8102711 L180.388131,184.233705 C181.032253,185.517079 180.514036,187.079623 179.230662,187.723744 C178.86872,187.905402 178.469348,188.000001 178.064378,188.000001 C135.484335,188.000017 105.436807,188.000283 87.9217932,188.0008 L87.9217932,10.9765514 C87.9217932,9.5406111 89.0858528,8.3765515 90.5217931,8.3765515 C91.5051803,8.3765515 92.4044205,8.93137071 92.8455379,9.8102711 Z" id="Rectangle-15-Copy" fill="#9BC8FE"></path>
                <path d="M92.5919037,9.30491994 L109.458827,42.9112707 L66.4461742,42.9112707 C74.1096284,27.6422897 79.7256073,16.4420447 83.2941107,9.31053572 L83.2941113,9.31053602 C84.5792471,6.74224436 87.7030673,5.70204103 90.2713589,6.98717684 C91.2746434,7.48920578 92.0886631,8.30224273 92.5919037,9.30491994 Z" id="Rectangle-15-Copy-2" fill="#FFFFFF"></path>
                <path d="M71.8173617,53.6297919 C75.5418775,53.6297919 78.561194,50.6218867 78.561194,46.9114477 C78.561194,43.2010086 75.5418775,40.1931034 71.8173617,40.1931034 C68.092846,40.1931034 65.0735294,43.2010086 65.0735294,46.9114477 C65.0735294,50.6218867 68.092846,53.6297919 71.8173617,53.6297919 Z" id="Oval-17" fill="#FFFFFF"></path>
                <path d="M61.405597,53.6297919 C65.1301128,53.6297919 68.1494293,50.6218867 68.1494293,46.9114477 C68.1494293,45.2853083 67.569502,43.7941063 66.6044446,42.6319027 L60.965686,53.6157268 C61.1111161,53.6250555 61.2578014,53.6297919 61.405597,53.6297919 Z" id="Oval-17-Copy-5" fill="#FFFFFF"></path>
                <path d="M82.2291264,53.6297919 C85.9536422,53.6297919 88.9729587,50.6218867 88.9729587,46.9114477 C88.9729587,43.2010086 85.9536422,40.1931034 82.2291264,40.1931034 C78.5046107,40.1931034 75.4852941,43.2010086 75.4852941,46.9114477 C75.4852941,50.6218867 78.5046107,53.6297919 82.2291264,53.6297919 Z" id="Oval-17-Copy" fill="#FFFFFF"></path>
                <path d="M92.6408911,53.6297919 C96.3654069,53.6297919 99.3847234,50.6218867 99.3847234,46.9114477 C99.3847234,43.2010086 96.3654069,40.1931034 92.6408911,40.1931034 C88.9163754,40.1931034 85.8970588,43.2010086 85.8970588,46.9114477 C85.8970588,50.6218867 88.9163754,53.6297919 92.6408911,53.6297919 Z" id="Oval-17-Copy-2" fill="#FFFFFF"></path>
                <path d="M103.052656,53.6297919 C106.777172,53.6297919 109.796488,50.6218867 109.796488,46.9114477 C109.796488,43.2010086 106.777172,40.1931034 103.052656,40.1931034 C99.3281401,40.1931034 96.3088235,43.2010086 96.3088235,46.9114477 C96.3088235,50.6218867 99.3281401,53.6297919 103.052656,53.6297919 Z" id="Oval-17-Copy-3" fill="#FFFFFF"></path>
                <path d="M113.464421,53.6297919 C113.927039,53.6297919 114.378778,53.5833863 114.815202,53.4949929 L109.076711,41.8093851 C107.634398,43.0415475 106.720588,44.8701851 106.720588,46.9114477 C106.720588,50.6218867 109.739905,53.6297919 113.464421,53.6297919 Z" id="Oval-17-Copy-4" fill="#FFFFFF"></path>
            </g>
            <g id="Group-32" transform="translate(75.000000, 150.000000)">
                <polygon id="Path-89" fill="#FFFFFF" points="22.8265137 18.2718903 46.537207 16.4388076 47.7103271 27.7768389 23.6518066 30.2952792"></polygon>
                <path d="M31.6902832,13.0071199 L105.947976,7.61309375 C113.879978,7.03691876 120.777218,12.9999946 121.353393,20.9319963 C121.439633,22.1192353 121.378329,23.3125867 121.170884,24.4847387 L112.264118,74.8117234 L45.0569924,74.8117234 L45.0569924,30.8460718 C45.0569924,29.8519592 44.2511049,29.0460717 43.2569923,29.0460717 C43.1687051,29.0460717 43.0805376,29.0525672 42.9932036,29.0655056 L34.7702782,30.2837223 L31.6902832,13.0071199 Z M73.6106645,34.8141226 L76.6213579,57.2177988 L83.1344927,57.2177988 L87.068477,34.8141226 L73.6106645,34.8141226 Z" id="Combined-Shape" fill="#308CFC"></path>
                <rect id="Rectangle-44" fill="#FCB430" x="0" y="84.440678" width="153" height="21.559322" rx="10.779661"></rect>
                <path d="M35.7005979,13.6775966 L35.7005979,22.764036 C35.7005979,23.7979131 34.862475,24.6360361 33.8285979,24.6360361 L7.01960054,24.6360361 C5.95976467,24.6360361 5.10059793,23.7768694 5.10059793,22.7170335 L5.10059793,22.7170335 C5.10059793,21.5726393 5.83716697,20.5582721 6.92536238,20.2040564 L19.7640082,16.0249808 C20.7551135,15.7023686 21.5668758,14.9812111 22.0039944,14.0350104 L23.1540938,11.5454695 C23.655807,10.4594453 24.9429225,9.98576771 26.0289467,10.487481 C26.3301599,10.6266332 26.5953799,10.8331228 26.8041442,11.0910185 C27.6320943,12.1139123 28.5653708,12.6253412 29.6039295,12.6253412 C30.3852979,12.6253412 31.1919987,12.3358504 32.0240319,11.7568687 L32.0240313,11.7568678 C33.0848205,11.0187031 34.5431608,11.280242 35.2813254,12.3410312 C35.5542829,12.7332884 35.7005979,13.1997142 35.7005979,13.6775966 Z" id="Path-52-Copy-10" fill="#308CFC" transform="translate(20.400598, 17.449595) rotate(70.000000) translate(-20.400598, -17.449595) "></path>
                <rect id="Rectangle-45" fill="#FCB430" x="39.6" y="68.2711864" width="81" height="37.7288136" rx="18.8644068"></rect>
                <polygon id="Rectangle-46" fill="#C6EAF9" points="16.2 88.0338983 63.4174805 94.8128559 90.5510742 94.8128559 135 88.0338983 135 106 16.2 106"></polygon>
                <ellipse id="Oval-33" fill="#0F3980" cx="79.2" cy="81.7457627" rx="19.8" ry="24.2542373"></ellipse>
                <path d="M59.5208433,57.4915254 C60.6152207,69.6185106 69.008382,79.0508475 79.2,79.0508475 C89.391618,79.0508475 97.7847793,69.6185106 98.8791567,57.4915254 C98.9590067,58.3763573 99,59.2755348 99,60.1864407 C99,73.5816861 90.135238,84.440678 79.2,84.440678 C68.264762,84.440678 59.4,73.5816861 59.4,60.1864407 C59.4,59.2755348 59.4409933,58.3763573 59.5208433,57.4915254 Z" id="Combined-Shape" fill="#C6EAF9" transform="translate(79.200000, 70.966102) scale(1, -1) translate(-79.200000, -70.966102) "></path>
            </g>
        </g>
    </g>
</svg>