<?xml version="1.0" encoding="UTF-8"?>
<svg width="156px" height="157px" viewBox="0 0 156 157" version="1.1" xmlns="http://www.w3.org/2000/svg" xmlns:xlink="http://www.w3.org/1999/xlink">
    <!-- Generator: Sketch 48.2 (47327) - http://www.bohemiancoding.com/sketch -->
    <title>Group 29 Copy 5</title>
    <desc>Created with Sketch.</desc>
    <defs></defs>
    <g id="choose-method" stroke="none" stroke-width="1" fill="none" fill-rule="evenodd" transform="translate(-204.000000, -468.000000)" opacity="0.159999996">
        <g id="Group-29-Copy-5" transform="translate(210.000000, 477.000000)">
            <g id="Group-26" stroke="#FFFFFF">
                <path d="M3.70085361,38.3090327 L152,38.3090327 L77.9805107,0.998308517 C76.7348232,0.370399575 75.2651768,0.370399575 74.0194893,0.998308517 L3.3047515,36.6432191 C2.87075862,36.8619803 2.69627882,37.391142 2.91503998,37.8251349 C3.06460909,38.12186 3.36856351,38.3090327 3.70085361,38.3090327 Z" id="Path-38-Copy" stroke-width="17.5999993" fill="#FFFFFF"></path>
                <g id="Group-27" transform="translate(22.800000, 30.647226)" opacity="0.5" stroke-linecap="round" stroke-linejoin="round" stroke-width="20">
                    <path d="M106.4,0 C106.4,1.18801819 106.4,34.3891799 106.4,99.6034851" id="Path-42-Copy-9"></path>
                    <path d="M53.2,0 C53.2,1.18801819 53.2,34.3891799 53.2,99.6034851" id="Path-42-Copy-14"></path>
                    <path d="M0,0 C0,1.18801819 0,34.3891799 0,99.6034851" id="Path-42-Copy-15"></path>
                </g>
                <path d="M144.4,137.912518 C144.4,137.912518 98.8,137.912518 7.6,137.912518" id="Path-42-Copy-16" stroke-width="20" stroke-linecap="round" stroke-linejoin="round"></path>
            </g>
            <ellipse id="Oval-18-Copy" fill="#4662CF" cx="76.4393064" cy="22.133758" rx="13.1791908" ry="13.2802548"></ellipse>
        </g>
    </g>
</svg>