<?xml version="1.0" encoding="UTF-8"?>
<svg width="172px" height="108px" viewBox="0 0 172 108" version="1.1" xmlns="http://www.w3.org/2000/svg" xmlns:xlink="http://www.w3.org/1999/xlink">
    <!-- Generator: Sketch 48.2 (47327) - http://www.bohemiancoding.com/sketch -->
    <title>Group 3</title>
    <desc>Created with Sketch.</desc>
    <defs></defs>
    <g id="choose-method" stroke="none" stroke-width="1" fill="none" fill-rule="evenodd" transform="translate(-177.000000, -325.000000)">
        <g id="Group-3" transform="translate(177.000000, 325.000000)" fill="#FFFFFF">
            <path d="M86,10.4984612 C94.9556279,3.89960562 106.022413,0 118,0 C147.823376,0 172,24.1766235 172,54 C172,83.8233765 147.823376,108 118,108 C106.022413,108 94.9556279,104.100394 86,97.5015388 C77.0443721,104.100394 65.9775869,108 54,108 C24.1766235,108 0,83.8233765 0,54 C0,24.1766235 24.1766235,0 54,0 C65.9775869,0 77.0443721,3.89960562 86,10.4984612 Z M86,10.4984612 C72.6567238,20.330307 64,36.1542104 64,54 C64,71.8457896 72.6567238,87.669693 86,97.5015388 C99.3432762,87.669693 108,71.8457896 108,54 C108,36.1542104 99.3432762,20.330307 86,10.4984612 Z" id="Combined-Shape" opacity="0.100000001"></path>
            <path d="M86,10.4984612 C99.3432762,20.330307 108,36.1542104 108,54 C108,71.8457896 99.3432762,87.669693 86,97.5015388 C72.6567238,87.669693 64,71.8457896 64,54 C64,36.1542104 72.6567238,20.330307 86,10.4984612 Z" id="Combined-Shape" opacity="0.200000003"></path>
        </g>
    </g>
</svg>