<?xml version="1.0" encoding="UTF-8"?>
<svg width="216px" height="216px" viewBox="0 0 216 216" version="1.1" xmlns="http://www.w3.org/2000/svg" xmlns:xlink="http://www.w3.org/1999/xlink">
    <!-- Generator: Sketch 48.2 (47327) - http://www.bohemiancoding.com/sketch -->
    <title>Group</title>
    <desc>Created with Sketch.</desc>
    <defs></defs>
    <g id="Unsuccess-screen" stroke="none" stroke-width="1" fill="none" fill-rule="evenodd" transform="translate(-72.000000, -138.000000)">
        <g id="Group" transform="translate(72.000000, 138.000000)">
            <circle id="Oval-27" fill="#C6EAF9" opacity="0.5" cx="108" cy="108" r="108"></circle>
            <path d="M77,60.9994585 L138.993663,61 C145.621046,61.0000485 150.993576,66.3726173 150.993576,73 L150.993663,101.658193 C150.993663,127.117244 138.4857,150.951477 117.534461,165.415531 L107.996832,172 L98.4594612,165.41571 C77.5080601,150.951544 65,127.117126 65,101.657879 L64.9999122,72.9993707 C64.9999122,66.3719537 70.3724952,60.9993707 76.9999122,60.9993707 C76.9999415,60.9993707 76.9999707,60.9993707 77,60.9993707 Z" id="Path-6" fill="#FFD000"></path>
            <path d="M107.965554,61 L138.993663,61 C145.62108,61 150.993663,66.372583 150.993663,73 L150.993663,101.658281 C150.993663,127.117377 138.485641,150.951642 117.534325,165.415664 L107.996832,172 L107.965554,61 Z" id="Path-6-Copy" fill="#DEB603"></path>
            <text id="!" font-family="Lato-Bold, Lato" font-size="48" font-weight="bold" fill="#FFFFFF">
                <tspan x="98.848" y="129">!</tspan>
            </text>
            <circle id="Oval-28-Copy-2" fill="#FFFFFF" cx="177" cy="126" r="4"></circle>
            <circle id="Oval-28-Copy" fill="#D8D8D8" cx="4" cy="176" r="4"></circle>
            <path d="M28.8169218,47.7115236 C28.588882,47.6254709 28.3372977,47.6254712 28.1092581,47.7115246 C27.5914082,47.9069413 27.3300244,48.485158 27.5254411,49.0030079 L28.6894893,52.0877103 C29.0329493,52.9978717 29.032952,54.002005 28.689497,54.9121683 L27.5254317,57.9969667 C27.4393778,58.2250116 27.4393781,58.4766011 27.5254327,58.7046458 C27.7208536,59.2225111 28.2990864,59.483904 28.8169517,59.2884831 L31.9016872,58.124432 C32.8118495,57.7809745 33.8159828,57.7809745 34.7261452,58.124432 L37.8108806,59.2884831 C38.0389253,59.3745378 38.2905148,59.3745381 38.5185597,59.2884841 C39.0364256,59.0930646 39.2978201,58.5148326 39.1024006,57.9969667 L37.9383353,54.9121683 C37.5948803,54.002005 37.594883,52.9978717 37.938343,52.0877103 L39.1023912,49.0030079 C39.1884447,48.7749682 39.188445,48.523384 39.1023922,48.2953441 C38.906977,47.7774937 38.3287609,47.5161084 37.8109105,47.7115236 L34.7261452,48.875586 C33.8159828,49.2190435 32.8118495,49.2190435 31.9016872,48.875586 L28.8169218,47.7115236 Z" id="Rectangle-8-Copy" stroke="#FFFFFF" stroke-width="2" transform="translate(33.313921, 53.500004) rotate(-285.000000) translate(-33.313921, -53.500004) "></path>
            <path d="M136.944143,25.6141757 C136.570598,25.1215043 135.921009,25.070816 135.49316,25.5014298 C135.065312,25.9315698 135.021704,26.6795777 135.395249,27.1722491 C135.403888,27.1840921 136.27275,28.3683984 135.734237,29.0709289 C134.91721,30.1386994 134.506229,31.4063808 134.576989,32.6409017 C134.633349,33.6210336 135.003603,34.5007363 135.620281,35.1184704 C135.815281,35.3131704 136.055534,35.4088623 136.294965,35.4088623 C136.582117,35.4088623 136.868035,35.2710091 137.071263,35.0019347 C137.443985,34.5083158 137.399143,33.760308 136.970472,33.3311154 C136.764775,33.1250461 136.649997,32.8398652 136.629427,32.4836258 C136.595693,31.8924201 136.831832,31.2192605 137.277371,30.6370555 C138.658828,28.8326465 137.663669,26.5625682 136.944143,25.6141757 Z" id="Path-Copy-13" fill="#0F3980" transform="translate(136.269163, 30.308862) rotate(263.000000) translate(-136.269163, -30.308862) "></path>
            <path d="M151.944143,208.614176 C151.570598,208.121504 150.921009,208.070816 150.49316,208.50143 C150.065312,208.93157 150.021704,209.679578 150.395249,210.172249 C150.403888,210.184092 151.27275,211.368398 150.734237,212.070929 C149.91721,213.138699 149.506229,214.406381 149.576989,215.640902 C149.633349,216.621034 150.003603,217.500736 150.620281,218.11847 C150.815281,218.31317 151.055534,218.408862 151.294965,218.408862 C151.582117,218.408862 151.868035,218.271009 152.071263,218.001935 C152.443985,217.508316 152.399143,216.760308 151.970472,216.331115 C151.764775,216.125046 151.649997,215.839865 151.629427,215.483626 C151.595693,214.89242 151.831832,214.21926 152.277371,213.637055 C153.658828,211.832646 152.663669,209.562568 151.944143,208.614176 Z" id="Path-Copy-12" fill="#0F3980" transform="translate(151.269163, 213.308862) rotate(263.000000) translate(-151.269163, -213.308862) "></path>
        </g>
    </g>
</svg>