<?xml version="1.0" encoding="UTF-8"?>
<svg width="308px" height="194px" viewBox="0 0 308 194" version="1.1" xmlns="http://www.w3.org/2000/svg" xmlns:xlink="http://www.w3.org/1999/xlink">
    <!-- Generator: Sketch 48.2 (47327) - http://www.bohemiancoding.com/sketch -->
    <title>Group 2</title>
    <desc>Created with Sketch.</desc>
    <defs></defs>
    <g id="Hello-user" stroke="none" stroke-width="1" fill="none" fill-rule="evenodd" transform="translate(-26.000000, -168.000000)">
        <g id="Group-2" transform="translate(26.000000, 168.000000)">
            <g id="Group-15" transform="translate(154.000000, 86.000000) scale(-1, 1) translate(-154.000000, -86.000000) " fill="#C6EAF9">
                <circle id="Oval-29" cx="112.5" cy="63.5" r="63.5"></circle>
                <circle id="Oval-29-Copy" cx="190.5" cy="87.5" r="63.5"></circle>
                <path d="M264,152 C265.635867,152 267.250883,151.910727 268.840443,151.736788 C272.644118,151.320566 275.514836,147.181529 278.963867,145.858811 C283.295668,144.197546 288.085175,145.109113 291.632974,142.242522 C301.615815,134.176473 308,121.83379 308,108 C308,83.699471 288.300529,64 264,64 C239.699471,64 220,83.699471 220,108 C220,132.300529 239.699471,152 264,152 Z" id="Oval-29-Copy-2"></path>
                <path d="M42.4792676,132.035064 C46.8648843,132.035064 57.6366648,161.047337 61.6815809,159.970763 C82.5962851,154.404209 98,135.399335 98,112.810634 C98,85.8532652 76.0619527,64 49,64 C21.9380473,64 0,85.8532652 0,112.810634 C0,122.512556 2.84157108,131.553358 7.74089468,139.152252 C8.27836844,139.985878 9.23867798,140.649933 10.0152893,141.209869 C20.8219912,135.093333 31.6433172,132.035064 42.4792676,132.035064 Z" id="Oval-29-Copy-3"></path>
                <path d="M10,141.198615 C55.0179303,161.871634 103.24888,172.138294 154.692848,171.998593 C204.447723,171.86348 249.797233,162.105184 290.741378,142.723706 C291.668034,142.285061 293.152333,140.460355 295.194276,137.249588 L299,93 L10.385696,101.225805 L10,141.198615 Z" id="Path-69"></path>
            </g>
            <circle id="Oval-6-Copy-5" fill="#0F3980" opacity="0.100000001" cx="185.132783" cy="44.2789414" r="12.5"></circle>
            <circle id="Oval-6-Copy-3" fill="#0F3980" opacity="0.100000001" cx="127.132783" cy="90.2789414" r="18.5"></circle>
            <g id="Group-14-Copy" transform="translate(64.000000, 21.000000)">
                <g id="Group-9-Copy" transform="translate(0.800000, 0.000000)">
                    <path d="M117.6,113.903361 L113.684214,166.725016 L108.383762,165.631157 L106.8,113.903361 C112.683094,106.032213 116.283094,106.032213 117.6,113.903361 Z" id="Path-58" fill="#FFFFFF"></path>
                    <polygon id="Path-54" fill="#FFBE00" points="50.1882837 12 49.7674805 25.3060547 44.4205078 26.4763916 43.2 36.4761028 59.7986144 37.2 67.1703663 31.286286 64.8760254 26.9255127 58.4422852 25.3060547 60.5021676 12.4114725"></polygon>
                    <path d="M113.806533,29.7765191 L113.806533,34.3979925 L124.273348,34.3979925 L140.43487,9.6 L145.709252,13.3183694 L132.018713,34.0457209 C125.901804,43.3066644 121.099247,53.3714389 117.748373,63.952237 L115.984626,69.5214844 L97.0157296,69.5214844 L93.3704159,49.0327083 C93.0647567,47.3147261 91.571038,46.0633088 89.8260766,46.0633088 L67.3642746,46.0633088 L66.2903683,46.0633088 L66,34.7531808 L99.532257,34.4436248 C101.872414,34.4220215 103.751972,32.5074367 103.730369,30.1672802 C103.728367,29.9504105 103.709718,29.7340146 103.674587,29.52 L113.806533,29.7765191 Z" id="Path-60" fill="#00D579"></path>
                    <path d="M98.735733,114.542187 L94.4108917,123.407396 C93.9595451,124.332581 93.8175889,125.37836 94.0059746,126.390384 L101.139166,164.710513 C99.6308239,165.516883 98.598169,165.920068 98.0412017,165.920068 C97.4842345,165.920068 96.8199158,165.711647 96.0482458,165.294805 L84.4331509,127.950228 C83.8446964,126.058243 83.8560783,124.030524 84.4657348,122.145264 L87.8758697,111.6 L98.735733,114.542187 Z" id="Path-59" fill="#FFFFFF"></path>
                    <path d="M40.0977494,81.8721826 L72.5127494,80.6222607 L70.973184,37.1623079 C70.9262583,35.8376555 71.9620604,34.7257717 73.2867129,34.678846 C73.307579,34.6781068 73.3284539,34.67764 73.3493322,34.6774456 L104.290367,34.3893311 L103.180313,28.3218417 L68.3761134,26.2418701 L59.4440186,25.4139404 C58.9770781,27.0805236 57.2387724,27.9036681 54.2291016,27.883374 C51.2194307,27.86308 49.6440401,26.968622 49.5029297,25.2 C41.9296224,26.205461 37.6128364,27.2460749 36.5525718,28.3218417 C35.4923072,29.3976085 28.9081166,38.0435197 16.8,54.2595752 L16.8,59.6661638 L37.8993223,40.9024644 L40.0977494,81.8721826 Z" id="Path-56" fill="#308CFC"></path>
                    <path d="M59.276456,63.8861038 C59.0127774,63.5383357 58.5542439,63.5025558 58.2522332,63.8065184 C57.9502225,64.1101467 57.9194406,64.6381522 58.1831192,64.9859202 C58.1892175,64.99428 58.8025315,65.8302609 58.4224046,66.3261648 C57.8456803,67.0798851 57.5555758,67.974719 57.6055237,68.8461455 C57.6453078,69.5380033 57.9066632,70.1589699 58.3419652,70.5950175 C58.4796124,70.7324527 58.649203,70.8 58.8182128,70.8 C59.0209085,70.8 59.2227329,70.7026918 59.366188,70.512757 C59.6292858,70.1643201 59.5976327,69.6363146 59.2950412,69.3333552 C59.1498438,69.1878945 59.0688236,68.9865903 59.0543039,68.7351272 C59.0304915,68.3178056 59.1971782,67.8426341 59.5116758,67.4316659 C60.4868219,66.1579654 59.7843566,64.5555573 59.276456,63.8861038 Z" id="Path-Copy-11" fill="#0F3980" transform="translate(58.800000, 67.200000) rotate(263.000000) translate(-58.800000, -67.200000) "></path>
                    <path d="M53.276456,72.2861038 C53.0127774,71.9383357 52.5542439,71.9025558 52.2522332,72.2065184 C51.9502225,72.5101467 51.9194406,73.0381522 52.1831192,73.3859202 C52.1892175,73.39428 52.8025315,74.2302609 52.4224046,74.7261648 C51.8456803,75.4798851 51.5555758,76.374719 51.6055237,77.2461455 C51.6453078,77.9380033 51.9066632,78.5589699 52.3419652,78.9950175 C52.4796124,79.1324527 52.649203,79.2 52.8182128,79.2 C53.0209085,79.2 53.2227329,79.1026918 53.366188,78.912757 C53.6292858,78.5643201 53.5976327,78.0363146 53.2950412,77.7333552 C53.1498438,77.5878945 53.0688236,77.3865903 53.0543039,77.1351272 C53.0304915,76.7178056 53.1971782,76.2426341 53.5116758,75.8316659 C54.4868219,74.5579654 53.7843566,72.9555573 53.276456,72.2861038 Z" id="Path-Copy-17" fill="#0F3980" transform="translate(52.800000, 75.600000) rotate(336.000000) translate(-52.800000, -75.600000) "></path>
                    <path d="M44.876456,66.2861038 C44.6127774,65.9383357 44.1542439,65.9025558 43.8522332,66.2065184 C43.5502225,66.5101467 43.5194406,67.0381522 43.7831192,67.3859202 C43.7892175,67.39428 44.4025315,68.2302609 44.0224046,68.7261648 C43.4456803,69.4798851 43.1555758,70.374719 43.2055237,71.2461455 C43.2453078,71.9380033 43.5066632,72.5589699 43.9419652,72.9950175 C44.0796124,73.1324527 44.249203,73.2 44.4182128,73.2 C44.6209085,73.2 44.8227329,73.1026918 44.966188,72.912757 C45.2292858,72.5643201 45.1976327,72.0363146 44.8950412,71.7333552 C44.7498438,71.5878945 44.6688236,71.3865903 44.6543039,71.1351272 C44.6304915,70.7178056 44.7971782,70.2426341 45.1116758,69.8316659 C46.0868219,68.5579654 45.3843566,66.9555573 44.876456,66.2861038 Z" id="Path-Copy-19" fill="#0F3980" transform="translate(44.400000, 69.600000) rotate(399.000000) translate(-44.400000, -69.600000) "></path>
                    <path d="M68.876456,69.8861038 C68.6127774,69.5383357 68.1542439,69.5025558 67.8522332,69.8065184 C67.5502225,70.1101467 67.5194406,70.6381522 67.7831192,70.9859202 C67.7892175,70.99428 68.4025315,71.8302609 68.0224046,72.3261648 C67.4456803,73.0798851 67.1555758,73.974719 67.2055237,74.8461455 C67.2453078,75.5380033 67.5066632,76.1589699 67.9419652,76.5950175 C68.0796124,76.7324527 68.249203,76.8 68.4182128,76.8 C68.6209085,76.8 68.8227329,76.7026918 68.966188,76.512757 C69.2292858,76.1643201 69.1976327,75.6363146 68.8950412,75.3333552 C68.7498438,75.1878945 68.6688236,74.9865903 68.6543039,74.7351272 C68.6304915,74.3178056 68.7971782,73.8426341 69.1116758,73.4316659 C70.0868219,72.1579654 69.3843566,70.5555573 68.876456,69.8861038 Z" id="Path-Copy-18" fill="#0F3980" transform="translate(68.400000, 73.200000) rotate(399.000000) translate(-68.400000, -73.200000) "></path>
                    <path d="M61.6353596,46.0794214 C61.3716811,45.7316534 60.9131475,45.6958734 60.6111368,45.999836 C60.3091261,46.3034643 60.2783443,46.8314698 60.5420228,47.1792378 C60.5481211,47.1875976 61.1614352,48.0235785 60.7813082,48.5194824 C60.204584,49.2732027 59.9144795,50.1680367 59.9644274,51.0394631 C60.0042115,51.7313209 60.2655669,52.3522875 60.7008688,52.7883351 C60.838516,52.9257704 61.0081066,52.9933176 61.1771165,52.9933176 C61.3798121,52.9933176 61.5816366,52.8960094 61.7250916,52.7060746 C61.9881894,52.3576378 61.9565364,51.8296322 61.6539449,51.5266728 C61.5087474,51.3812121 61.4277273,51.1799079 61.4132075,50.9284449 C61.3893951,50.5111232 61.5560818,50.0359517 61.8705795,49.6249835 C62.8457256,48.351283 62.1432603,46.7488749 61.6353596,46.0794214 Z" id="Path-Copy-23" fill="#0F3980" transform="translate(61.158904, 49.393318) rotate(321.000000) translate(-61.158904, -49.393318) "></path>
                    <path d="M53.276456,56.6861038 C53.0127774,56.3383357 52.5542439,56.3025558 52.2522332,56.6065184 C51.9502225,56.9101467 51.9194406,57.4381522 52.1831192,57.7859202 C52.1892175,57.79428 52.8025315,58.6302609 52.4224046,59.1261648 C51.8456803,59.8798851 51.5555758,60.774719 51.6055237,61.6461455 C51.6453078,62.3380033 51.9066632,62.9589699 52.3419652,63.3950175 C52.4796124,63.5324527 52.649203,63.6 52.8182128,63.6 C53.0209085,63.6 53.2227329,63.5026918 53.366188,63.312757 C53.6292858,62.9643201 53.5976327,62.4363146 53.2950412,62.1333552 C53.1498438,61.9878945 53.0688236,61.7865903 53.0543039,61.5351272 C53.0304915,61.1178056 53.1971782,60.6426341 53.5116758,60.2316659 C54.4868219,58.9579654 53.7843566,57.3555573 53.276456,56.6861038 Z" id="Path-Copy-22" fill="#0F3980" transform="translate(52.800000, 60.000000) rotate(353.000000) translate(-52.800000, -60.000000) "></path>
                    <path d="M44.876456,50.6861038 C44.6127774,50.3383357 44.1542439,50.3025558 43.8522332,50.6065184 C43.5502225,50.9101467 43.5194406,51.4381522 43.7831192,51.7859202 C43.7892175,51.79428 44.4025315,52.6302609 44.0224046,53.1261648 C43.4456803,53.8798851 43.1555758,54.774719 43.2055237,55.6461455 C43.2453078,56.3380033 43.5066632,56.9589699 43.9419652,57.3950175 C44.0796124,57.5324527 44.249203,57.6 44.4182128,57.6 C44.6209085,57.6 44.8227329,57.5026918 44.966188,57.312757 C45.2292858,56.9643201 45.1976327,56.4363146 44.8950412,56.1333552 C44.7498438,55.9878945 44.6688236,55.7865903 44.6543039,55.5351272 C44.6304915,55.1178056 44.7971782,54.6426341 45.1116758,54.2316659 C46.0868219,52.9579654 45.3843566,51.3555573 44.876456,50.6861038 Z" id="Path-Copy-21" fill="#0F3980" transform="translate(44.400000, 54.000000) rotate(353.000000) translate(-44.400000, -54.000000) "></path>
                    <path d="M68.876456,54.2861038 C68.6127774,53.9383357 68.1542439,53.9025558 67.8522332,54.2065184 C67.5502225,54.5101467 67.5194406,55.0381522 67.7831192,55.3859202 C67.7892175,55.39428 68.4025315,56.2302609 68.0224046,56.7261648 C67.4456803,57.4798851 67.1555758,58.374719 67.2055237,59.2461455 C67.2453078,59.9380033 67.5066632,60.5589699 67.9419652,60.9950175 C68.0796124,61.1324527 68.249203,61.2 68.4182128,61.2 C68.6209085,61.2 68.8227329,61.1026918 68.966188,60.912757 C69.2292858,60.5643201 69.1976327,60.0363146 68.8950412,59.7333552 C68.7498438,59.5878945 68.6688236,59.3865903 68.6543039,59.1351272 C68.6304915,58.7178056 68.7971782,58.2426341 69.1116758,57.8316659 C70.0868219,56.5579654 69.3843566,54.9555573 68.876456,54.2861038 Z" id="Path-Copy-20" fill="#0F3980" transform="translate(68.400000, 57.600000) rotate(380.000000) translate(-68.400000, -57.600000) "></path>
                    <path d="M44.876456,36.2861038 C44.6127774,35.9383357 44.1542439,35.9025558 43.8522332,36.2065184 C43.5502225,36.5101467 43.5194406,37.0381522 43.7831192,37.3859202 C43.7892175,37.39428 44.4025315,38.2302609 44.0224046,38.7261648 C43.4456803,39.4798851 43.1555758,40.374719 43.2055237,41.2461455 C43.2453078,41.9380033 43.5066632,42.5589699 43.9419652,42.9950175 C44.0796124,43.1324527 44.249203,43.2 44.4182128,43.2 C44.6209085,43.2 44.8227329,43.1026918 44.966188,42.912757 C45.2292858,42.5643201 45.1976327,42.0363146 44.8950412,41.7333552 C44.7498438,41.5878945 44.6688236,41.3865903 44.6543039,41.1351272 C44.6304915,40.7178056 44.7971782,40.2426341 45.1116758,39.8316659 C46.0868219,38.5579654 45.3843566,36.9555573 44.876456,36.2861038 Z" id="Path-Copy-26" fill="#0F3980" transform="translate(44.400000, 39.600000) rotate(263.000000) translate(-44.400000, -39.600000) "></path>
                    <path d="M49.8699991,28.8862076 C49.6063206,28.5384396 49.147787,28.5026596 48.8457763,28.8066223 C48.5437656,29.1102505 48.5129838,29.638256 48.7766623,29.9860241 C48.7827606,29.9943839 49.3960747,30.8303648 49.0159477,31.3262686 C48.4392235,32.079989 48.149119,32.9748229 48.1990669,33.8462493 C48.238851,34.5381071 48.5002064,35.1590737 48.9355084,35.5951213 C49.0731555,35.7325566 49.2427462,35.8001038 49.411756,35.8001038 C49.6144516,35.8001038 49.8162761,35.7027957 49.9597312,35.5128608 C50.2228289,35.164424 50.1911759,34.6364185 49.8885844,34.333459 C49.743387,34.1879983 49.6623668,33.9866941 49.647847,33.7352311 C49.6240347,33.3179094 49.7907213,32.8427379 50.105219,32.4317697 C51.0803651,31.1580693 50.3778998,29.5556611 49.8699991,28.8862076 Z" id="Path-Copy-25" fill="#0F3980" transform="translate(49.393543, 32.200104) rotate(287.000000) translate(-49.393543, -32.200104) "></path>
                    <path d="M55.676456,37.4861038 C55.4127774,37.1383357 54.9542439,37.1025558 54.6522332,37.4065184 C54.3502225,37.7101467 54.3194406,38.2381522 54.5831192,38.5859202 C54.5892175,38.59428 55.2025315,39.4302609 54.8224046,39.9261648 C54.2456803,40.6798851 53.9555758,41.574719 54.0055237,42.4461455 C54.0453078,43.1380033 54.3066632,43.7589699 54.7419652,44.1950175 C54.8796124,44.3324527 55.049203,44.4 55.2182128,44.4 C55.4209085,44.4 55.6227329,44.3026918 55.766188,44.112757 C56.0292858,43.7643201 55.9976327,43.2363146 55.6950412,42.9333552 C55.5498438,42.7878945 55.4688236,42.5865903 55.4543039,42.3351272 C55.4304915,41.9178056 55.5971782,41.4426341 55.9116758,41.0316659 C56.8868219,39.7579654 56.1843566,38.1555573 55.676456,37.4861038 Z" id="Path-Copy-24" fill="#0F3980" transform="translate(55.200000, 40.800000) rotate(409.000000) translate(-55.200000, -40.800000) "></path>
                    <path d="M68.8353596,36.4794214 C68.5716811,36.1316534 68.1131475,36.0958734 67.8111368,36.399836 C67.5091261,36.7034643 67.4783443,37.2314698 67.7420228,37.5792378 C67.7481211,37.5875976 68.3614352,38.4235785 67.9813082,38.9194824 C67.404584,39.6732027 67.1144795,40.5680367 67.1644274,41.4394631 C67.2042115,42.1313209 67.4655669,42.7522875 67.9008688,43.1883351 C68.038516,43.3257704 68.2081066,43.3933176 68.3771165,43.3933176 C68.5798121,43.3933176 68.7816366,43.2960094 68.9250916,43.1060746 C69.1881894,42.7576378 69.1565364,42.2296322 68.8539449,41.9266728 C68.7087474,41.7812121 68.6277273,41.5799079 68.6132075,41.3284449 C68.5893951,40.9111232 68.7560818,40.4359517 69.0705795,40.0249835 C70.0457256,38.751283 69.3432603,37.1488749 68.8353596,36.4794214 Z" id="Path-Copy-28" fill="#0F3980" transform="translate(68.358904, 39.793318) rotate(321.000000) translate(-68.358904, -39.793318) "></path>
                    <path d="M62.876456,27.8861038 C62.6127774,27.5383357 62.1542439,27.5025558 61.8522332,27.8065184 C61.5502225,28.1101467 61.5194406,28.6381522 61.7831192,28.9859202 C61.7892175,28.99428 62.4025315,29.8302609 62.0224046,30.3261648 C61.4456803,31.0798851 61.1555758,31.974719 61.2055237,32.8461455 C61.2453078,33.5380033 61.5066632,34.1589699 61.9419652,34.5950175 C62.0796124,34.7324527 62.249203,34.8 62.4182128,34.8 C62.6209085,34.8 62.8227329,34.7026918 62.966188,34.512757 C63.2292858,34.1643201 63.1976327,33.6363146 62.8950412,33.3333552 C62.7498438,33.1878945 62.6688236,32.9865903 62.6543039,32.7351272 C62.6304915,32.3178056 62.7971782,31.8426341 63.1116758,31.4316659 C64.0868219,30.1579654 63.3843566,28.5555573 62.876456,27.8861038 Z" id="Path-Copy-27" fill="#0F3980" transform="translate(62.400000, 31.200000) rotate(409.000000) translate(-62.400000, -31.200000) "></path>
                    <path d="M96.476456,27.8861038 C96.2127774,27.5383357 95.7542439,27.5025558 95.4522332,27.8065184 C95.1502225,28.1101467 95.1194406,28.6381522 95.3831192,28.9859202 C95.3892175,28.99428 96.0025315,29.8302609 95.6224046,30.3261648 C95.0456803,31.0798851 94.7555758,31.974719 94.8055237,32.8461455 C94.8453078,33.5380033 95.1066632,34.1589699 95.5419652,34.5950175 C95.6796124,34.7324527 95.849203,34.8 96.0182128,34.8 C96.2209085,34.8 96.4227329,34.7026918 96.566188,34.512757 C96.8292858,34.1643201 96.7976327,33.6363146 96.4950412,33.3333552 C96.3498438,33.1878945 96.2688236,32.9865903 96.2543039,32.7351272 C96.2304915,32.3178056 96.3971782,31.8426341 96.7116758,31.4316659 C97.6868219,30.1579654 96.9843566,28.5555573 96.476456,27.8861038 Z" id="Path-Copy-29" fill="#0F3980" transform="translate(96.000000, 31.200000) rotate(686.000000) translate(-96.000000, -31.200000) "></path>
                    <path d="M84.4366627,27.057923 C83.9462309,27.7723363 83.7030925,28.5958756 83.7491546,29.3995078 C83.7889387,30.0913655 84.0502941,30.7123321 84.4855961,31.1483797 C84.6232433,31.285815 84.7928339,31.3533623 84.9618437,31.3533623 C85.1645393,31.3533623 85.3663638,31.2560541 85.5098189,31.0661192 C85.7729166,30.7176824 85.7412636,30.1896769 85.4386721,29.8867174 C85.2934747,29.7412567 85.2124545,29.5399525 85.1979348,29.2884895 C85.1741224,28.8711678 85.340809,28.3959963 85.6553067,27.9850281 C85.7869828,27.8130376 85.8880698,27.6350536 85.9631773,27.4541824 L84.4366627,27.057923 Z" id="Path-Copy-30" fill="#0F3980" transform="translate(84.853404, 29.205643) rotate(709.000000) translate(-84.853404, -29.205643) "></path>
                    <path d="M77.5727513,30.3277455 C77.3090727,29.9799775 76.8505392,29.9441975 76.5485285,30.2481601 C76.2465178,30.5517884 76.2157359,31.0797939 76.4794145,31.427562 C76.4855128,31.4359218 77.0988268,32.2719026 76.7186999,32.7678065 C76.1851511,33.4651009 75.8969138,34.2831713 75.8962963,35.0917493 L77.4181201,34.6298037 C77.4927294,34.3719189 77.6254607,34.1118022 77.8079711,33.8733076 C78.7831172,32.5996071 78.0806519,30.997199 77.5727513,30.3277455 Z" id="Path-Copy-31" fill="#0F3980" transform="translate(77.096296, 32.566696) rotate(736.000000) translate(-77.096296, -32.566696) "></path>
                    <path d="M97.1505615,69.6 L116.143359,69.6 L117.6,115.336157 L86.4,115.336157 L95.6404237,79.9626316 C96.525387,76.5748786 97.0318627,73.0994201 97.1505615,69.6 Z" id="Path-57" fill="#0F3980"></path>
                    <path d="M40.4640625,80.0144531 L47.873877,163.374756 L56.4017888,163.526147 L57.6017888,94.3480112 C64.3742788,140.365841 67.975457,163.374756 68.4053233,163.374756 C69.0501229,163.374756 76.530704,164.357344 76.6286708,163.374756 C76.693982,162.719697 75.3589779,134.661445 72.6236586,79.2 L40.4640625,80.0144531 Z" id="Path-51" fill="#FD3133"></path>
                    <path d="M101.6,164.2 L101.6,170.44 C101.6,170.970193 101.170193,171.4 100.64,171.4 L86.9446834,171.4 C86.4229492,171.4 86,170.977051 86,170.455317 L86,170.455317 C86,169.893111 86.3648797,169.39595 86.9012174,169.227377 L93.4717962,167.16222 C93.9795939,167.002617 94.3983468,166.639371 94.6280758,166.159209 L95.813226,163.682095 C96.0126434,163.265288 96.4336557,163 96.8957115,163 L100.4,163 C101.062742,163 101.6,163.537258 101.6,164.2 Z" id="Path-52-Copy-2" fill="#00D579"></path>
                    <path d="M114,164.4 L114,170.64 C114,171.170193 113.570193,171.6 113.04,171.6 L99.3446834,171.6 C98.8229492,171.6 98.4,171.177051 98.4,170.655317 L98.4,170.655317 C98.4,170.093111 98.7648797,169.59595 99.3012174,169.427377 L105.871796,167.36222 C106.379594,167.202617 106.798347,166.839371 107.028076,166.359209 L108.213226,163.882095 C108.412643,163.465288 108.833656,163.2 109.295712,163.2 L112.8,163.2 C113.462742,163.2 114,163.737258 114,164.4 Z" id="Path-52-Copy-3" fill="#00D579"></path>
                    <path d="M86.3999944,163.2 L86.3999944,170.639914 C86.3999944,171.170107 85.9701878,171.599914 85.4399945,171.599914 L70.5446737,171.599914 C70.0229448,171.599914 69.6,171.176969 69.6,170.65524 L69.6,170.65524 C69.6,170.093041 69.9648766,169.595886 70.501209,169.427316 L77.0717938,167.362177 C77.5795914,167.202576 77.9983448,166.839332 78.2280755,166.359171 L79.7395645,163.2 L86.3999944,163.2 Z" id="Path-52-Copy" fill="#0F3980" transform="translate(77.999997, 167.399957) scale(-1, 1) translate(-77.999997, -167.399957) "></path>
                    <path d="M55.1999944,163.2 L55.1999944,170.639914 C55.1999944,171.170107 54.7701878,171.599914 54.2399945,171.599914 L39.3446737,171.599914 C38.8229448,171.599914 38.4,171.176969 38.4,170.65524 L38.4,170.65524 C38.4,170.093041 38.7648766,169.595886 39.301209,169.427316 L45.8717938,167.362177 C46.3795914,167.202576 46.7983448,166.839332 47.0280755,166.359171 L48.5395645,163.2 L55.1999944,163.2 Z" id="Path-52-Copy-8" fill="#0F3980"></path>
                    <path d="M21.5739434,82.8 C36.5540299,74.7909595 45.4821371,74.7909595 48.3582651,82.8 C51.2343931,90.8090405 48.3648604,107.680115 39.7496671,133.413223 L31.3825687,119.335118 L33.7156469,94.7304741 L28.1255044,111.269779 C27.7767076,112.301749 27.8826201,113.433298 28.4168647,114.382616 L48.5290414,150.12063 L43.6504526,153.781787 L16.5847324,118.795176 C15.3349645,117.179658 14.7802049,115.132851 15.0431213,113.107341 C16.042447,105.408524 16.859073,100.029265 17.4929992,96.9695644 C18.2106297,93.5058579 19.5709444,88.7826698 21.5739434,82.8 Z" id="Path-46" fill="#0F3980" transform="translate(32.208625, 115.287503) scale(-1, 1) translate(-32.208625, -115.287503) "></path>
                    <ellipse id="Oval-23" fill="#FFBE00" cx="54.6" cy="14.4" rx="9" ry="13.2"></ellipse>
                    <path d="M54.6013672,20.3121745 C55.7118192,19.6455078 56.5941937,19.3121745 57.2484905,19.3121745 C57.9027874,19.3121745 58.7851619,19.6455078 59.8956139,20.3121745" id="Path-19" stroke="#0F3980" stroke-linecap="round"></path>
                    <path d="M17.1005094,68.908055 L21.6617398,63.254344 C31.4605692,56.7372092 38.0561747,49.3376974 41.4485562,41.0558089 C44.8409378,32.7739203 42.5306839,29.711518 34.5177945,31.8686018 C16.2295914,54.1225341 8.51757316,66.7203336 11.3817398,69.6620003 C14.2459065,72.603667 16.152163,72.3523518 17.1005094,68.908055 Z" id="Path-55" fill="#308CFC"></path>
                    <path d="M44.5966922,60.6114398 C42.7435387,57.6463922 43.5341511,56.7471194 43.7245437,55.3060948 C43.9149364,53.8650702 44.9968702,50.0756902 44.2181591,49.8598721 C43.439448,49.644054 43.0129344,53.8650702 42.0330918,53.8650702 C41.0532492,53.8650702 41.1047924,49.264221 40.3818835,49.3128403 C39.9614235,49.3411184 39.7929148,50.4472029 39.8763575,52.6310938 L39.8763312,52.6310948 C39.8960995,53.1484783 39.5020074,53.5883225 38.9855665,53.6252728 C38.1652677,53.6839634 37.6619472,54.0112844 37.475605,54.6072359 C37.1013343,55.8042124 37.1877211,56.6092249 37.2780427,57.2259744 C37.4199756,58.1951444 37.8601488,59.4692164 38.2675915,60.0152096 C38.6750341,60.5612028 52.3387346,73.1984107 57.4536586,68.5912478 C61.51121,64.9364915 55.309646,44.5138593 53.1333268,43.2048301 C52.5661915,42.8637052 55.4350153,60.695849 53.998511,63.6249506 C53.0408415,65.5776849 49.9069019,64.5731814 44.5966922,60.6114398 Z" id="Path-49" fill="#FFFFFF" transform="translate(48.000000, 56.400000) scale(-1, 1) translate(-48.000000, -56.400000) "></path>
                    <path d="M37.2307254,33.6 C41.3901995,36.3077928 43.3758888,39.9307296 43.1877932,44.4688105 C42.9056499,51.2759318 34.0537998,58.4723383 37.4587542,58.4723383 C38.1458835,58.4723383 37.27257,67.0781847 34.0063924,64.2175028 C32.2752978,62.7013236 36.6478009,60.8960299 36.4382421,55.5000498 C36.2878226,51.6268622 36.5519837,44.3268456 37.2307254,33.6 Z" id="Path-47" fill="#FFFFFF"></path>
                    <path d="M18.1047112,60.9533727 C17.8410326,60.6056046 17.3824991,60.5698246 17.0804884,60.8737873 C16.7784777,61.1774155 16.7476958,61.7054211 17.0113744,62.0531891 C17.0174727,62.0615489 17.6307867,62.8975298 17.2506598,63.3934336 C16.6739355,64.147154 16.383831,65.0419879 16.4337789,65.9134144 C16.473563,66.6052722 16.7349184,67.2262387 17.1702204,67.6622864 C17.3078676,67.7997216 17.4774582,67.8672689 17.646468,67.8672689 C17.8491637,67.8672689 18.0509881,67.7699607 18.1944432,67.5800259 C18.457541,67.231589 18.4258879,66.7035835 18.1232964,66.400624 C17.978099,66.2551634 17.8970788,66.0538592 17.8825591,65.8023961 C17.8587467,65.3850745 18.0254334,64.9099029 18.339931,64.4989347 C19.3150771,63.2252343 18.6126118,61.6228262 18.1047112,60.9533727 Z" id="Path-Copy-32" fill="#0F3980" transform="translate(17.628255, 64.267269) rotate(1146.000000) translate(-17.628255, -64.267269) "></path>
                    <path d="M19.2,39.8293931 C21.6010578,43.0161042 23.6484974,45.2215461 25.3423188,46.4457187 C27.0361402,47.6698914 29.8640258,48.9879852 33.8259756,50.4 L37.2,33.4426266 L30.4992463,28.8146664 L19.2,27.6 L19.2,39.8293931 Z" id="Path-43" fill="#FFFFFF"></path>
                    <path d="M6.32221597,39.6544308 C4.75686584,36.170888 8.89495987,33.3197363 18.7364981,31.1009756 C22.7022538,41.9298454 26.8391133,46.9656229 31.1470766,46.2083081 C37.6090215,45.072336 35.5802892,33.7014009 33.1610643,30 L34.6947064,30.8996957 C36.2319916,31.801524 37.4878742,33.1134994 38.3217128,34.6886988 C41.5693168,40.8237277 43.4600979,44.6635974 43.9940562,46.2083081 C44.8953889,48.815812 44.9862976,50.7917129 43.9940562,52.4012328 C38.0639698,62.0204566 39.4369987,58.4387733 39.775873,64.2090281 C40.1147473,69.9792829 44.5109019,77.1053309 42.8949219,83.0551269 C32.8660873,87.0807869 23.9639717,87.0807869 16.188575,83.0551269 C15.830195,83.8470964 16.5208675,79.8054322 18.2605926,70.9301343 C20.8701802,57.6171875 10.3840864,48.69375 6.32221597,39.6544308 Z" id="Path-42" fill="#FD3133"></path>
                    <path d="M16.0296439,68.8328339 C16.7027784,68.8610757 18.8738369,66.8998065 19.2707311,67.2395578 C19.6676253,67.5793091 18.5824834,69.7199169 19.5969906,70.7362569 C20.6114978,71.7525969 23.6967431,71.8479867 24.4241658,72.4450368 C25.9331069,73.6835373 24.2349203,75.1152369 23.9781838,75.7481418 C23.4864722,76.9603059 17.3061616,76.493147 16.4159214,76.0303549 C12.5656361,74.0287809 11.8563882,68.6577422 16.0296439,68.8328339 Z" id="Path-44-Copy-2" fill="#FFBE00"></path>
                    <path d="M143.229644,8.83283394 C143.902778,8.86107574 146.073837,6.89980654 146.470731,7.23955781 C146.867625,7.57930909 145.782483,9.71991693 146.796991,10.7362569 C147.811498,11.7525969 150.896743,11.8479867 151.624166,12.4450368 C153.133107,13.6835373 151.43492,15.1152369 151.178184,15.7481418 C150.686472,16.9603059 144.506162,16.493147 143.615921,16.0303549 C139.765636,14.0287809 139.056388,8.65774224 143.229644,8.83283394 Z" id="Path-44-Copy-3" fill="#FFFFFF"></path>
                    <path d="M14.0765232,43.2813794 L7.65368753,60.4513863 C6.06750116,64.6917052 8.21910068,69.4150209 12.4594195,71.0012073 C13.2698993,71.3043854 14.1232718,71.477323 14.9878402,71.5135965 C14.9878402,71.5135965 14.9878402,71.5135965 14.9878402,71.5135965 C15.6609747,71.5418383 17.8320332,69.5805691 18.2289274,69.9203204 C18.6258216,70.2600716 17.5406797,72.4006795 18.5551869,73.4170195 C19.569694,74.4333595 22.6549394,74.5287493 23.3823621,75.1257994 C24.8913032,76.3642999 23.1931166,77.7959995 22.9363801,78.4289044 C22.4446685,79.6410685 16.2643579,79.1739096 15.3741177,78.7111175 C11.5238324,76.7095434 -1.86404622,69.8379729 0.218601663,62.6318106 C2.69740082,54.0549266 5.45133178,38.5372161 7.90862047,37.3660941 C9.54681292,36.5853461 11.6027805,38.5571078 14.0765232,43.2813794 Z" id="Path-44" fill="#FFFFFF"></path>
                    <ellipse id="Oval-22" fill="#FFFFFF" cx="27.6" cy="18" rx="9.6" ry="12"></ellipse>
                    <path d="M25.6792652,1.22229508 C19.6984707,0.80191397 13.5724243,6.36768591 13.7636348,14.4184887 C13.9548452,22.4692915 16.3415052,24.9310814 12.6144788,28.9336768 C8.88745234,32.9362723 2.58255542,36.98323 5.58702086,44.5466733 C8.59148631,52.1101167 18.6726322,45.414548 20.1846463,41.8174605 C21.1926557,39.4194023 22.6510299,35.1248077 24.5597689,28.9336768 C25.3212452,21.9594385 25.6944106,17.7233687 25.6792652,16.2254675 C25.6565471,13.9786156 26.6624581,6.87151282 28.4975686,6.77881732 C29.8838988,6.70879072 32.9434022,9.19102461 34.6200899,12.6889876 C38.5162398,20.817268 33.6737007,26.1529945 31.8436335,28.4579547 C30.0135663,30.7629148 31.9160079,30.8112602 33.6526785,29.9652543 C35.3893492,29.1192483 40.4681011,24.3818648 39.4716611,16.2254675 C38.4752211,8.06907015 31.6600597,1.6426762 25.6792652,1.22229508 Z" id="Path-38" fill="#0F3980"></path>
                    <polygon id="Path-48" fill="#0F3980" points="25.2 133.595361 31.9312051 162.328857 37.7071289 160.359165 33.4460449 118.8"></polygon>
                    <g id="Group-30" transform="translate(31.200000, 159.600000)">
                        <path d="M0.1953125,2.23320312 L0.941230306,7.48961818 L9.87037869,10.8 C11.4789308,10.137586 12.4993154,9.64922252 12.9315325,9.33490969 C14.411332,8.258784 13.5189208,7.25705167 13.4535645,7.15922852 C13.4242808,7.11539769 13.1946741,7.0549751 12.7647445,6.97796073 L12.7647435,6.97796611 C9.26694272,6.35139633 6.54084266,3.59330111 5.95512695,0.0884277344 L0.1953125,2.23320312 Z" id="Path-50" fill="#FFFFFF"></path>
                        <path d="M6.35840982,7.11088867 C2.03330975,8.98451128 0.268499625,10.3617098 1.06397943,11.2424841 C2.25719915,12.5636456 15.7789714,13.8848072 17.009572,12.5636456 C17.8299723,11.6828713 18.4529861,9.86528564 18.8786133,7.11088867 C11.8846409,8.62930931 8.0494472,9.21973091 7.37303225,8.88215346 C6.69661729,8.54457602 6.35840982,7.95415442 6.35840982,7.11088867 Z" id="Path-45" fill="#308CFC" transform="translate(9.878613, 10.110889) scale(-1, 1) translate(-9.878613, -10.110889) "></path>
                    </g>
                    <g id="Group-30-Copy" transform="translate(16.763760, 160.445855) rotate(57.000000) translate(-16.763760, -160.445855) translate(7.163760, 153.845855)">
                        <path d="M0.1953125,2.23320312 L0.941230306,7.48961818 L9.87037869,10.8 C11.4789308,10.137586 12.4993154,9.64922252 12.9315325,9.33490969 C14.411332,8.258784 13.5189208,7.25705167 13.4535645,7.15922852 C13.4242808,7.11539769 13.1946741,7.0549751 12.7647445,6.97796073 L12.7647435,6.97796611 C9.26694272,6.35139633 6.54084266,3.59330111 5.95512695,0.0884277344 L0.1953125,2.23320312 Z" id="Path-50" fill="#FFFFFF"></path>
                        <path d="M6.35840982,7.11088867 C2.03330975,8.98451128 0.268499625,10.3617098 1.06397943,11.2424841 C2.25719915,12.5636456 15.7789714,13.8848072 17.009572,12.5636456 C17.8299723,11.6828713 18.4529861,9.86528564 18.8786133,7.11088867 C11.8846409,8.62930931 8.0494472,9.21973091 7.37303225,8.88215346 C6.69661729,8.54457602 6.35840982,7.95415442 6.35840982,7.11088867 Z" id="Path-45" fill="#308CFC" transform="translate(9.878613, 10.110889) scale(-1, 1) translate(-9.878613, -10.110889) "></path>
                    </g>
                    <path d="M46.2354427,12.2973012 C46.4073993,10.7449946 46.9342171,9.65521274 47.8158961,9.02795569 C49.1384146,8.08707011 54.1198713,4.86502046 55.065637,4.93599509 C56.0114028,5.00696973 58.7471461,10.3931314 61.1910233,10.6858831 C63.6349004,10.9786348 67.4119961,10.1217798 68.1958058,9.02795569 C68.5752312,8.49845907 68.4258819,7.9024425 67.7477578,7.23990597 L67.7477612,7.23990251 C67.1625319,6.66812548 66.7895284,5.9140526 66.6902049,5.10192138 C66.3438739,2.27010195 64.6378816,1.09205538 61.5722282,1.56778166 C63.0182958,0.492456684 61.9648464,-0.029702711 58.4118798,0.00130347534 C53.08243,0.0478127548 45.6,5.00225781 45.6,6.46181333 C45.6,7.43485034 45.6,9.38001297 45.6,12.2973012 C45.6268358,12.5014159 45.7394519,12.6070057 45.9378482,12.6140705 C46.1362445,12.6211354 46.2354427,12.5155456 46.2354427,12.2973012 Z" id="Path-62-Copy" fill="#0F3980"></path>
                    <rect id="Rectangle-42" fill="#00D579" x="100.8" y="31.2" width="4.8" height="4.8"></rect>
                    <path d="M101.37479,34.4261433 C102.974609,34.4261433 104.193457,33.2965475 104.193457,31.6967285 C104.193457,30.0969095 102.896547,28.8 101.296729,28.8 C99.6969095,28.8 98.4,30.0969095 98.4,31.6967285 C98.4,32.8961127 99.1132654,33.9861003 100.152281,34.4261433 C100.700331,34.4261433 101.107834,34.4261433 101.37479,34.4261433 Z" id="Oval-25" fill="#308CFC"></path>
                    <ellipse id="Oval-22-Copy-2" fill="#FFFFFF" transform="translate(109.200000, 20.400000) scale(-1, 1) translate(-109.200000, -20.400000) " cx="109.2" cy="20.4" rx="9.6" ry="12"></ellipse>
                    <path d="M107.397796,8.4 C108.573268,5.58125778 111.35526,3.6 114.6,3.6 C118.907821,3.6 122.4,7.09217895 122.4,11.4 C122.4,13.390332 121.654526,15.2065494 120.427563,16.5846685 C120.233233,16.9069134 120.006195,17.2072095 119.751046,17.4809594 C119.756556,17.6959072 119.758976,17.9166836 119.758306,18.1432887 C119.74053,24.1578783 118.318653,26.8267897 115.492676,26.150023 L115.492676,23.6844749 L116.289082,23.6775291 C116.969614,23.6715939 117.518167,23.1182359 117.518167,22.4376782 L117.518167,22.0762572 C117.518167,21.5970339 117.12968,21.2085467 116.650457,21.2085467 C116.181462,21.2085467 115.755846,21.4829519 115.562259,21.9101288 C115.385864,22.2993837 115.158338,22.4964698 114.879682,22.501387 C114.578591,22.5067001 114.352006,21.4062377 114.199926,19.2 L103.8,19.2 C100.817662,19.2 98.4,16.7823376 98.4,13.8 C98.4,10.8176624 100.817662,8.4 103.8,8.4 L107.397796,8.4 Z" id="Combined-Shape" fill="#FFBE00"></path>
                    <path d="M117.6,79.2 L94.8,79.2" id="Path-75-Copy-4" stroke="#C6EAF9" stroke-width="3.59999979"></path>
                    <path d="M117.6,88.2 L92.4,88.2" id="Path-75-Copy-5" stroke="#C6EAF9" stroke-width="3.59999979"></path>
                    <path d="M117.6,97.8 L88.8,97.8" id="Path-75-Copy-9" stroke="#C6EAF9" stroke-width="3.59999979"></path>
                    <path d="M117.6,107.4 L87.6,107.4" id="Path-75-Copy-7" stroke="#C6EAF9" stroke-width="3.59999979"></path>
                    <path d="M10.3963371,75.9049949 C11.9048412,72.6811219 12.6590932,71.0691855 12.6590932,71.0691855" id="Path-74" stroke="#0F3980" stroke-width="1.19999993"></path>
                    <path d="M11.4976691,74.1852971 C11.8290399,74.1852971 12.0976691,73.916668 12.0976691,73.5852971 C12.0976691,73.2539263 11.8290399,72.9852971 11.4976691,72.9852971 C11.1662982,72.9852971 10.8976691,73.2539263 10.8976691,73.5852971 C10.8976691,73.916668 11.1662982,74.1852971 11.4976691,74.1852971 Z" id="Oval-26" stroke="#0F3980" stroke-width="2.39999986" fill="#C6EAF9"></path>
                    <path d="M101.741016,34.3967285 C101.939128,41.5213379 103.129362,45.3900391 105.311719,46.002832 C107.494076,46.615625 110.753597,43.4598145 115.090283,36.5354004" id="Path-5" stroke="#0F3980" stroke-width="1.19999993"></path>
                    <path d="M113.240356,36.4060819 C115.185385,38.2174228 116.520913,39.102386 117.246939,39.0609714 C117.972965,39.0195569 118.335978,38.3841708 118.335978,37.1548131 L123.841532,39.9153293 C124.433979,40.212384 125.155062,39.9729217 125.452117,39.3804753 C125.626368,39.0329474 125.621465,38.6225379 125.438961,38.279272 C123.174663,34.0204303 118.799048,32.2412872 112.312116,32.9418429 L113.240356,36.4060819 Z" id="Path-63" fill="#FFBE00" transform="translate(118.945762, 36.418143) rotate(15.000000) translate(-118.945762, -36.418143) "></path>
                    <path d="M94.8862793,165.637329 C95.2697354,165.83718 95.6940111,165.937105 96.1591064,165.937105 C96.6242018,165.937105 97.0981194,165.83718 97.5808594,165.637329" id="Path-2" stroke="#FFFFFF"></path>
                    <path d="M107.366504,165.637329 C107.74996,165.83718 108.174236,165.937105 108.639331,165.937105 C109.104426,165.937105 109.578344,165.83718 110.061084,165.637329" id="Path-2-Copy" stroke="#FFFFFF"></path>
                </g>
            </g>
            <path d="M287.542955,94.7318306 C294.051843,94.7318306 299.676128,90.9443984 302.332179,85.4531655 C299.5674,82.0279592 294.983431,78.384712 288.580272,74.5234241 C284.299529,71.7043271 273.861974,69.226626 273.699141,69.481342 C272.06896,72.0314007 271.124042,75.0618104 271.124042,78.3129174 C271.124042,87.3808327 278.47504,94.7318306 287.542955,94.7318306 Z" id="Oval-6" fill="#0F3980" opacity="0.100000001" transform="translate(286.728111, 82.097557) rotate(11.000000) translate(-286.728111, -82.097557) "></path>
            <path d="M241.502439,31.7011067 C244.366286,31.7011067 247.005192,30.7380201 249.112947,29.1180565 C249.229692,29.0283292 249.344808,28.9365867 249.458242,28.842881 C246.20247,24.5856528 243.454195,21.418386 241.213419,19.3410806 C238.972643,17.2637751 235.684912,14.7857019 231.350227,11.906861 C229.872711,13.9596607 229.002439,16.4787522 229.002439,19.2011067 C229.002439,26.104666 234.59888,31.7011067 241.502439,31.7011067 Z" id="Oval-6-Copy-7" fill="#0F3980" opacity="0.100000001" transform="translate(239.230341, 21.803984) rotate(3.000000) translate(-239.230341, -21.803984) "></path>
            <circle id="Oval-6-Copy-2" fill="#0F3980" opacity="0.100000001" cx="267.610529" cy="139.610529" r="14.6105293"></circle>
            <circle id="Oval-6-Copy-6" fill="#0F3980" opacity="0.100000001" cx="217.610529" cy="98.6105293" r="14.6105293"></circle>
            <circle id="Oval-6-Copy" fill="#0F3980" opacity="0.100000001" cx="69.5" cy="129.5" r="15.5"></circle>
            <path d="M17.6331139,92.7791138 C23.7082461,92.7791138 28.6331139,87.854246 28.6331139,81.7791138 C28.6331139,76.4614556 25.1803796,72.0662207 20.1651611,71.0426025 C19.8366927,70.9755613 16.4853915,73.6005433 13.4337158,76.4481201 C9.44567871,80.1694336 6.87357614,84.1333845 7.00441087,84.6235201 C8.25804797,89.3199196 12.5416119,92.7791138 17.6331139,92.7791138 Z" id="Oval-6-Copy-4" fill="#0F3980" opacity="0.100000001"></path>
        </g>
    </g>
</svg>