<?xml version="1.0" encoding="UTF-8"?>
<svg width="299px" height="191px" viewBox="0 0 299 191" version="1.1" xmlns="http://www.w3.org/2000/svg" xmlns:xlink="http://www.w3.org/1999/xlink">
    <!-- Generator: Sketch 48.2 (47327) - http://www.bohemiancoding.com/sketch -->
    <title>Group 3</title>
    <desc>Created with Sketch.</desc>
    <defs></defs>
    <g id="Dashboar-choose-method-Copy-2" stroke="none" stroke-width="1" fill="none" fill-rule="evenodd" transform="translate(-30.000000, -176.000000)">
        <g id="Group-3" transform="translate(28.000000, 172.000000)">
            <g id="Group-15-Copy-6" transform="translate(153.338138, 99.469425) scale(-1, 1) rotate(-181.000000) translate(-153.338138, -99.469425) translate(5.838138, 3.469425)">
                <ellipse id="Oval-29" fill="#C6EAF9" cx="107.304502" cy="60.938326" rx="60.4680095" ry="60.938326"></ellipse>
                <ellipse id="Oval-29-Copy" fill="#C6EAF9" cx="181.404028" cy="84.0528634" rx="60.4680095" ry="60.938326"></ellipse>
                <path d="M253.056872,144.991189 C254.616267,144.991189 256.155786,144.905921 257.671038,144.739783 C261.296903,144.34223 264.033423,140.388845 267.321222,139.125456 C271.450524,137.538705 276.016135,138.409385 279.398085,135.671372 C288.914257,127.967116 295,116.178049 295,102.964758 C295,79.7542004 276.221422,60.938326 253.056872,60.938326 C229.892322,60.938326 211.113744,79.7542004 211.113744,102.964758 C211.113744,126.175315 229.892322,144.991189 253.056872,144.991189 Z" id="Oval-29-Copy-2" fill="#C6EAF9"></path>
                <path d="M40.789854,124.974083 C44.856688,124.974083 54.8454865,152.280926 58.5963848,151.267635 C77.9908357,146.028301 92.2748815,128.140591 92.2748815,106.879723 C92.2748815,81.5069899 71.9314725,60.938326 46.8366058,60.938326 C21.7417391,60.938326 1.31977994,81.5071101 1.39833011,106.879723 C1.49124859,136.893465 25.7173979,124.974083 40.789854,124.974083 Z" id="Oval-29-Copy-3" fill="#C6EAF9"></path>
                <path d="M22.9359811,141.019403 C59.7252566,157.636192 105.106358,159.11352 148.727219,158.993857 C196.250629,158.863489 238.217206,155.634146 277.32504,136.933348 C278.210137,136.510108 279.627866,134.749486 281.57823,131.651482 L285.21327,88.9559471 L9.54307644,96.8928609 C-6.68203288,114.949258 -2.21773134,129.658105 22.9359811,141.019403 Z" id="Path-69" fill="#C6EAF9"></path>
                <path d="M54.6148299,101.395713 L43.7056908,125.364513 C43.4769065,125.867182 43.6989339,126.460142 44.2016029,126.688926 C44.3316804,126.74813 44.4729369,126.778764 44.6158536,126.778764 L54.3794574,126.778764 L49.2544574,142.122464 L49.0219818,144.497592 C48.9681817,145.04725 49.370154,145.536449 49.9198121,145.590249 C50.1565419,145.61342 50.393779,145.55145 50.5889338,145.415463 L52.8482074,143.841164 L68.8142572,118.340637 C69.10734,117.872533 68.9654576,117.25547 68.497354,116.962387 C68.3382723,116.862785 68.1543708,116.809964 67.9666807,116.809964 L59.1607074,116.809964 L69.7186241,102.401012 C70.0450513,101.95552 69.9485298,101.329755 69.5030371,101.003328 C69.3315787,100.877695 69.1245482,100.809964 68.9119883,100.809964 L55.5249927,100.809964 C55.1330273,100.809964 54.7772018,101.038961 54.6148299,101.395713 Z" id="Shape" fill="#F7F7F7" fill-rule="nonzero" opacity="0.5" transform="translate(56.973224, 123.732205) scale(1, -1) translate(-56.973224, -123.732205) "></path>
                <path d="M177.817917,33.5355678 L166.908778,57.5043678 C166.679994,58.0070369 166.902021,58.599997 167.40469,58.8287814 C167.534768,58.8879847 167.676024,58.9186185 167.818941,58.9186185 L177.582545,58.9186185 L172.457545,74.2623185 L172.225069,76.6374466 C172.171269,77.1871047 172.573241,77.6763042 173.122899,77.7301042 C173.359629,77.7532752 173.596866,77.6913045 173.792021,77.5553174 L176.051295,75.9810185 L192.017344,50.4804918 C192.310427,50.0123883 192.168545,49.3953248 191.700441,49.1022421 C191.54136,49.00264 191.357458,48.9498185 191.169768,48.9498185 L182.363795,48.9498185 L192.921711,34.5408674 C193.248139,34.0953747 193.151617,33.46961 192.706124,33.1431828 C192.534666,33.0175495 192.327635,32.9498185 192.115076,32.9498185 L178.72808,32.9498185 C178.336115,32.9498185 177.980289,33.1788156 177.817917,33.5355678 Z" id="Shape-Copy" fill="#F7F7F7" fill-rule="nonzero" opacity="0.5" transform="translate(180.176311, 55.872060) scale(1, -1) translate(-180.176311, -55.872060) "></path>
                <path d="M172.918844,113.313955 L153.514413,155.948017 C153.285629,156.450686 153.507656,157.043646 154.010325,157.272431 C154.140403,157.331634 154.281659,157.362268 154.424576,157.362268 L172.322677,157.362268 L163.514046,183.734363 L162.962739,189.366886 C162.908939,189.916544 163.310912,190.405744 163.86057,190.459544 C164.097299,190.482715 164.334537,190.420744 164.529691,190.284757 L169.69083,186.688391 L197.821425,141.758994 C198.114508,141.290891 197.972625,140.673827 197.504522,140.380744 C197.34544,140.281142 197.161538,140.228321 196.973848,140.228321 L180.540485,140.228321 L199.524918,114.319254 C199.851345,113.873761 199.754823,113.247997 199.309331,112.921569 C199.137872,112.795936 198.930842,112.728205 198.718282,112.728205 L173.829007,112.728205 C173.437041,112.728205 173.081216,112.957202 172.918844,113.313955 Z" id="Shape-Copy-2" fill="#F7F7F7" fill-rule="nonzero" opacity="0.5" transform="translate(176.780732, 152.125973) scale(1, -1) translate(-176.780732, -152.125973) "></path>
                <path d="M272.376631,85.226098 L264.050058,102.887417 C263.814541,103.386967 264.028582,103.982857 264.528133,104.218373 C264.661502,104.281251 264.807125,104.313858 264.954574,104.313858 L272.253365,104.313858 L268.234036,115.930775 L268.101086,117.242067 C268.045376,117.791535 268.445646,118.282129 268.995114,118.337838 C269.227334,118.361383 269.460475,118.302953 269.654144,118.172673 L271.052468,117.232025 L283.32414,98.3104851 C283.624658,97.84712 283.492645,97.2278702 283.029279,96.927352 C282.867252,96.8222684 282.678263,96.7663489 282.485143,96.7663489 L276.003105,96.7663489 L283.979665,86.25712 C284.313566,85.8172011 284.227621,85.1898962 283.787703,84.8559954 C283.61379,84.7239949 283.401455,84.6525391 283.183122,84.6525391 L273.281146,84.6525391 C272.894041,84.6525391 272.541708,84.8759559 272.376631,85.226098 Z" id="Shape-Copy-3" fill="#F7F7F7" fill-rule="nonzero" opacity="0.5" transform="translate(274.287551, 102.007269) scale(1, -1) translate(-274.287551, -102.007269) "></path>
            </g>
            <g id="Group-2" transform="translate(30.000000, 106.000000)">
                <path d="M84.1184896,70.1515153 L55.8630733,45.9819676 C52.6808752,43.2599307 47.93798,43.4525015 44.9869327,46.4235601 L19.0359091,72.5505606 L34.1077474,74.8240413 L47.9642478,61.0054133 C49.5284812,59.4454553 52.0611387,59.4489211 53.6210968,61.0131545 C53.6924901,61.0847435 53.7611435,61.1590135 53.8269091,61.2358046 L68.436849,78.2950699 L84.1184896,70.1515153 Z" id="Path-94-Copy-3" fill="#0066FA"></path>
                <path d="M37.7910128,43.2469111 C38.199558,43.2640518 40.0888167,41.3196314 40.9180654,41.8196098 C41.3642162,42.0886073 40.7897427,44.691822 41.121019,45.0236967 C42.0680296,45.9724183 44.9480094,46.0614617 45.6270357,46.6187892 C47.0355849,47.7748906 46.3673533,49.0693833 45.2107255,49.7021341 C44.0540978,50.334885 38.982602,50.3975731 38.1515906,49.9655712 C34.5574701,48.0971646 33.8954094,43.0834684 37.7910128,43.2469111 Z" id="Path-44-Copy-13" fill="#FFBE00" transform="translate(40.785863, 45.989963) scale(-1, 1) rotate(-21.000000) translate(-40.785863, -45.989963) "></path>
                <path d="M95.9306149,35 L97.7382321,44.1376953 L75.3008502,52.4547723 C74.5516012,52.7325036 73.7467001,52.8266158 72.9535902,52.7292232 L46.4139205,49.4701967 C45.956509,49.4140273 45.5967145,49.052537 45.5426966,48.5948664 L45.00699,44.0560514 C44.9422544,43.5075737 45.3344048,43.0104662 45.8828824,42.9457305 C45.9364746,42.9394051 45.9904909,42.9374282 46.0444021,42.9398191 L71.9786152,44.0899748 C72.6878296,44.1214277 73.3956116,44.0014952 74.0548741,43.7381561 L95.9306149,35 Z" id="Path-95-Copy-3" fill="#FF262E"></path>
                <g id="Group-19-Copy-3" transform="translate(94.500000, 16.500000) scale(-1, 1) translate(-94.500000, -16.500000) translate(80.000000, 0.000000)">
                    <path d="M7,16.4238839 C6.72596102,16.7334016 6.58663811,16.9727843 6.58203125,17.1420318 C6.57742439,17.3112793 6.57742439,22.1903677 6.58203125,31.7792969 L14.3880311,32.8625 L14.3880311,27.8050781 C21.6989949,24.8005394 24.8405588,19.486942 23.8127229,11.8642857 C22.7848869,4.24162946 17.1806459,5.76149554 7,16.4238839 Z" id="Path-91" fill="#FFBE00"></path>
                    <path d="M9.20927839,25.0575335 C8.06103691,20.6035156 9.52841482,18.3781436 13.6114121,18.3814174 C19.7359081,18.3863281 11.4822119,12.4738281 22.4034988,11.5512277 C29.4314998,10.9575214 30.0204085,7.37007178 24.1702249,0.788878854 L24.1701907,0.788909247 C23.8216276,0.396791438 23.221187,0.361483389 22.8290692,0.710046514 C22.8226627,0.715741411 22.8163336,0.72152276 22.8100836,0.727388972 L20.9978369,2.42834821 C16.8023704,2.42834821 12.8728509,2.42834821 9.20927839,2.42834821 C3.71391969,2.42834821 -1.20102487,7.83258929 0.666897681,14.1999442 C1.91217938,18.4448475 4.75963962,22.0640439 9.20927839,25.0575335 Z" id="Path-92" fill="#0F3980"></path>
                </g>
                <path d="M89.6906097,47.2471505 L86.4102608,38.7851355" id="Path-100-Copy-6" stroke="#FFFFFF" stroke-width="6"></path>
                <path d="M102.778564,30 L102.778564,75.9492188 C102.778564,80.3674967 99.1968425,83.9492188 94.7785645,83.9492188 L93.5495605,83.9492188 L80,69.5966797 L80.7875828,69.5966912 C82.9921421,69.5966912 84.7811029,67.8129764 84.7875771,65.6084266 C84.8099913,57.9760211 84.8056037,53.3264403 84.7744141,51.6596841 C84.7744141,51.6596841 84.7744141,51.6596841 84.7744141,51.6596841 L84.7744141,51.6596841 C84.5788727,41.2100605 91.9132547,32.1280101 102.16984,30.1191999 L102.778564,30 Z" id="Path-93-Copy-6" fill="#E2131B"></path>
                <path d="M93.7712402,83.9009046 L12,83.9009046 L12,72.5483655 L82.530222,69 L100.228002,82.0966283 C98.7362939,83.0709978 97.5604441,83.6246231 96.7004523,83.7575041 C95.8404605,83.8903851 94.8640565,83.9381853 93.7712402,83.9009046 Z" id="Path-93-Copy-7" fill="#007BFB"></path>
                <path d="M15.9999475,67.0000525 L15.9999399,77.1999399 C15.9999396,77.6417675 15.6417675,77.9999393 15.1999399,77.9999393 L-3.76302216,77.9999399 C-4.44621517,77.9999399 -5.00005254,77.4461025 -5.00005254,76.7629095 L-5.00005254,76.7629095 C-5.00005254,76.0278924 -4.51997756,75.3790957 -3.81708127,75.1641843 L5.46754696,72.3253986 C5.8901243,72.1961951 6.24045189,71.8979795 6.43547218,71.5014543 L8.64936586,67.0000525 L15.9999475,67.0000525 Z" id="Path-52-Copy-13" fill="#FF262E" transform="translate(5.499944, 72.499996) rotate(-270.000000) translate(-5.499944, -72.499996) "></path>
                <path d="M12.5,72 L12.5,72 C13.3284271,72 14,72.6715729 14,73.5 L14,84 L11,84 L11,73.5 C11,72.6715729 11.6715729,72 12.5,72 Z" id="Rectangle-22-Copy-3" fill="#0066FA"></path>
                <circle id="Oval-34-Copy" fill="#FF262E" cx="95.5" cy="44.5" r="4.5"></circle>
                <path d="M57.1032519,67.6672747 C57.8578697,67.6989352 59.965114,68.6617396 61.1024278,69.8011081 C62.2397417,70.9404767 65.6984577,71.0474135 66.5139353,71.7167368 C68.2055345,73.1051585 66.3017815,74.7101661 66.013967,75.4196845 C65.4627334,76.7785818 58.5342927,76.254873 57.5362884,75.7360596 C53.219924,73.492194 52.4248212,67.4709881 57.1032519,67.6672747 Z" id="Path-44-Copy-14" fill="#FFBE00" transform="translate(60.568708, 71.973354) scale(-1, -1) rotate(-16.000000) translate(-60.568708, -71.973354) "></path>
                <path d="M64,71.7307129 C74.8028658,71.6947796 82.2642916,69.876583 86.3842773,66.276123 C90.5042631,62.6756631 93.5502429,55.2502887 95.5222168,44" id="Path-98-Copy-3" stroke="#FF262E" stroke-width="9"></path>
            </g>
            <g id="Group-2" transform="translate(170.000000, 22.000000)">
                <path d="M20.6521197,105.998442 L20.6521197,131.672673 C20.6521197,135.956366 23.632233,139.663236 27.8159114,140.583489 L65.9181425,148.96457 C67.4568666,149.303032 68.7120354,150.411511 69.238156,151.896579 C70.331626,154.983089 70.901093,156.459308 70.946557,156.325236 C70.9833612,156.216701 74.5382948,156.883272 74.3397556,153.271616 C74.2709953,152.020788 73.2115681,149.258505 71.1614739,144.984768 L39.2257981,130.919437 L44.2007834,104.731194 L20.6521197,105.998442 Z" id="Path-90-Copy" fill="#EA7153"></path>
                <path d="M27.6960479,117.983178 C24.72472,135.828379 29.6533058,144.667789 41.0050251,141.108302 C52.0367317,137.64916 65.8051133,134.382557 82.3101701,131.308493 L82.3101701,131.308493 C83.3901674,131.107344 84.5010659,131.43702 85.2965049,132.194736 C85.9568225,132.823737 86.3981078,133.229507 86.6203608,133.412046 C86.9619661,133.692609 88.0341466,134.470816 89.8369023,135.746667 C89.7879247,133.229873 89.537526,131.450542 89.0857061,130.408676 C88.6338862,129.366809 86.6220004,127.313144 83.0500488,124.247681 L45.0373899,129.281987 C44.4129725,129.364684 43.8397435,128.925532 43.7570471,128.301115 C43.7459988,128.217692 43.7442175,128.133302 43.7517356,128.049488 L45.4730846,108.8594 L29.8443271,110.036224 C28.4232891,115.26724 27.707196,117.916225 27.6960479,117.983178 Z" id="Path-36-Copy" fill="#FF835E"></path>
                <path d="M21.1132183,98.2587705 L16.5216849,123.929942 C26.3387506,130.372236 38.0416492,127.937182 51.6303805,116.624779 L47.5437281,95.4427329 L21.1132183,98.2587705 Z" id="Path-34-Copy-2" fill="#0F3980"></path>
                <path d="M72.9315405,3.59409684 C73.5772132,3.62062653 75.3802322,4.42740224 76.3533507,5.3821287 C77.3264692,6.33685516 80.2858463,6.42646216 80.9835925,6.9873173 C82.4309735,8.15073623 80.8020675,9.49564194 80.5558051,10.0901783 C80.0841538,11.2288574 74.1559803,10.7900191 73.302059,10.3552828 C69.6088532,8.4750501 68.9285404,3.42961972 72.9315405,3.59409684 Z" id="Path-44-Copy-10" fill="#EA7153" transform="translate(75.896685, 7.202348) rotate(283.000000) translate(-75.896685, -7.202348) "></path>
                <path d="M2.46740342,6.68968954 C3.05437861,6.71242928 4.69348679,7.40395131 5.57813996,8.22228828 C6.46279314,9.04062524 9.15313598,9.11743124 9.78745068,9.59816423 C11.1032516,10.5953804 9.62242802,11.7481568 9.3985531,12.2577594 C8.96977917,13.2337701 3.58053051,12.8576229 2.80423847,12.4849918 C-0.553221378,10.8733638 -1.1716876,6.54870915 2.46740342,6.68968954 Z" id="Path-44-Copy-11" fill="#EA7153" transform="translate(5.162989, 9.782477) scale(-1, 1) rotate(283.000000) translate(-5.162989, -9.782477) "></path>
                <path d="M70.4693441,8.75042525 L76.4129892,12.4365922 L55.6641439,50.5697811 C53.6481191,54.2749248 52.3346056,58.3209181 51.7898499,62.5037027 L47.4999773,95.4425309 C41.6769157,98.835788 36.8387238,100.555184 32.9854017,100.60072 C29.1320796,100.646256 25.2325875,100.006517 21.2869253,98.6815042 L27.605585,65.80759 C28.4176927,61.5824596 27.7107427,57.206261 25.6095699,53.4517546 L4.13038053,15.0714019 L9.06728766,12.4696154 L33.9079495,48.3929785 L38.0916091,52.8277073 C41.7542324,53.9054543 45.0022444,52.4272114 47.835645,48.3929785 C50.6690457,44.3587456 58.213612,31.1445612 70.4693441,8.75042525 Z" id="Path-28-Copy" fill="#00D579"></path>
                <path d="M85.2588286,127.436323 C81.5370487,129.047718 80.0184168,130.232168 80.7029329,130.989671 C81.7297071,132.125927 93.3652902,133.262182 94.4242308,132.125927 C95.1301913,131.368423 95.6662992,129.805222 96.0325544,127.436323 C90.0141905,128.742229 86.7139786,129.250017 86.1319186,128.959686 C85.5498586,128.669355 85.2588286,128.161567 85.2588286,127.436323 Z" id="Path-45-Copy-5" fill="#0F3980" transform="translate(88.287989, 130.016451) rotate(-117.000000) translate(-88.287989, -130.016451) "></path>
                <path d="M69.7696982,150.141451 C66.0479183,151.752846 64.5292864,152.937296 65.2138025,153.6948 C66.2405767,154.831055 77.8761597,155.96731 78.9351004,154.831055 C79.6410609,154.073551 80.1771687,152.51035 80.543424,150.141451 C74.5250601,151.447358 71.2248481,151.955145 70.6427882,151.664814 C70.0607282,151.374483 69.7696982,150.866695 69.7696982,150.141451 Z" id="Path-45-Copy-6" fill="#0F3980" transform="translate(72.798859, 152.721579) rotate(-90.000000) translate(-72.798859, -152.721579) "></path>
                <ellipse id="Oval-11-Copy-2" fill="#EA7153" cx="40.2716849" cy="53.1286304" rx="5.16304348" ry="3.09615385"></ellipse>
                <g id="Group-9-Copy-2" transform="translate(42.444966, 37.168984) rotate(1.000000) translate(-42.444966, -37.168984) translate(29.944966, 22.168984)">
                    <ellipse id="Oval-22-Copy-6" fill="#FF835E" transform="translate(11.152174, 17.458868) scale(-1, 1) translate(-11.152174, -17.458868) " cx="11.1521739" cy="17.4588675" rx="9.91304348" ry="12.4706197"></ellipse>
                    <path d="M6.64289997,13.1557364 L16.1711835,13.1557364 C16.3078693,17.4879443 16.589829,19.6502546 17.0170625,19.6426673 C17.3053941,19.6375468 17.5407115,19.4319036 17.7230147,19.0257376 L17.7230057,19.0257335 C17.9214544,18.5835957 18.3609487,18.299124 18.8455802,18.299124 L18.8455802,18.299124 C19.3404303,18.299124 19.7415856,18.7002793 19.7415856,19.1951294 L19.7415856,19.57646 C19.7415856,20.2837195 19.171531,20.8587995 18.4642988,20.865007 L17.6500459,20.8721539 L17.6500459,23.4343966 C20.5681745,24.137705 22.0364168,21.3641234 22.0547727,15.1136518 C22.0731286,8.86318024 19.843805,6.87992985 15.3668019,9.16390064 C13.3177594,5.72613468 10.720269,5.31496979 7.57433059,7.93040599 C4.4283922,10.5458422 4.11791533,12.287619 6.64289997,13.1557364 Z" id="Path-31-Copy-5" fill="#0F3980"></path>
                    <rect id="Rectangle-31-Copy-2" fill="#0F3980" x="0" y="4.98824786" width="23.5434783" height="11.2235577" rx="5.61177885"></rect>
                    <ellipse id="Oval-24-Copy-2" fill="#0F3980" cx="16.7282609" cy="8.10590278" rx="8.05434783" ry="8.10590278"></ellipse>
                </g>
            </g>
            <path d="M37,180 L37,183.464694" id="Path-99" stroke="#F7F7F7"></path>
            <path d="M39,183.5 L39,181" id="Path-99-Copy" stroke="#F7F7F7"></path>
            <path d="M129.051246,155.272972 L120.242156,153.44106 C119.983478,154.680448 119.772327,155.614341 119.608704,156.242737 C119.44508,156.871133 119.161165,157.83854 118.756958,159.144958 L127.374878,161.756409 C127.79082,160.433675 128.086616,159.432638 128.262268,158.753296 C128.43792,158.073954 128.700913,156.913846 129.051246,155.272972 Z" id="Path-100-Copy-4" fill="#FFFFFF"></path>
            <path d="M127.661458,160.746001 L119.015997,158.120722" id="Path-100-Copy-5" stroke="#FFFFFF" stroke-width="2"></path>
            <path d="M97.0019043,173.124805 L97.4236816,182.189648" id="Path-100" stroke="#0F3980" stroke-width="2"></path>
            <circle id="Oval" stroke="#0F3980" fill="#FFFFFF" cx="97" cy="177" r="2"></circle>
            <circle id="Oval-35" fill="#C6EAF9" cx="201.5" cy="78.5" r="1.5"></circle>
            <circle id="Oval-35-Copy-13" fill="#C6EAF9" cx="197.5" cy="63.5" r="1.5"></circle>
            <circle id="Oval-35-Copy-14" fill="#C6EAF9" cx="186.5" cy="58.5" r="1.5"></circle>
            <circle id="Oval-35-Copy-15" fill="#C6EAF9" cx="186.5" cy="45.5" r="1.5"></circle>
            <circle id="Oval-35-Copy-16" fill="#C6EAF9" cx="175.5" cy="40.5" r="1.5"></circle>
            <circle id="Oval-35-Copy" fill="#C6EAF9" cx="209.5" cy="91.5" r="1.5"></circle>
            <circle id="Oval-35-Copy-8" fill="#C6EAF9" cx="218.5" cy="84.5" r="1.5"></circle>
            <circle id="Oval-35-Copy-9" fill="#C6EAF9" cx="219.5" cy="73.5" r="1.5"></circle>
            <circle id="Oval-35-Copy-10" fill="#C6EAF9" cx="230.5" cy="63.5" r="1.5"></circle>
            <circle id="Oval-35-Copy-11" fill="#C6EAF9" cx="230.5" cy="48.5" r="1.5"></circle>
            <circle id="Oval-35-Copy-12" fill="#C6EAF9" cx="239.5" cy="42.5" r="1.5"></circle>
            <circle id="Oval-35-Copy-2" fill="#C6EAF9" cx="201.5" cy="98.5" r="1.5"></circle>
            <circle id="Oval-35-Copy-7" fill="#C6EAF9" cx="217.5" cy="98.5" r="1.5"></circle>
            <circle id="Oval-35-Copy-3" fill="#C6EAF9" cx="207.5" cy="107.5" r="1.5"></circle>
            <circle id="Oval-35-Copy-4" fill="#C6EAF9" cx="201.5" cy="118.5" r="1.5"></circle>
            <circle id="Oval-35-Copy-5" fill="#C6EAF9" cx="193.5" cy="108.5" r="1.5"></circle>
            <circle id="Oval-35-Copy-6" fill="#C6EAF9" cx="211.5" cy="115.5" r="1.5"></circle>
            <circle id="Oval-37" stroke="#F7F7F7" fill="#FF835E" cx="205" cy="64" r="3"></circle>
            <circle id="Oval-37-Copy" stroke="#F7F7F7" fill="#FF835E" cx="213" cy="64" r="3"></circle>
            <path d="M141.005371,64 L137,72.7019043" id="Path-70-Copy-10" stroke="#007BFB" stroke-width="2" stroke-linecap="round"></path>
            <path d="M47.3422103,63.8582518 L49.7689278,70.4241518" id="Path-70-Copy-11" stroke="#00D579" stroke-width="3" stroke-linecap="round"></path>
            <path d="M81.838519,125.927843 L75.2726191,128.354561" id="Path-70-Copy-12" stroke="#F7F7F7" stroke-width="3" stroke-linecap="round"></path>
            <path d="M239.005371,16 L236.914768,20.5419577" id="Path-70-Copy-6" stroke="#007BFB" stroke-width="2" stroke-linecap="round"></path>
            <path d="M85,69.118034 L81.809017,75.5 L88.190983,75.5 L85,69.118034 Z" id="Rectangle-8" stroke="#FF262E"></path>
            <path d="M275,169.118034 L271.809017,175.5 L278.190983,175.5 L275,169.118034 Z" id="Rectangle-8-Copy-5" stroke="#0066FA" transform="translate(275.000000, 172.000000) rotate(-56.000000) translate(-275.000000, -172.000000) "></path>
            <polygon id="Rectangle-8-Copy" fill="#FF262E" transform="translate(265.000000, 92.000000) rotate(-315.000000) translate(-265.000000, -92.000000) " points="265 88 269 96 261 96"></polygon>
            <polygon id="Rectangle-8-Copy-2" fill="#308CFC" transform="translate(164.000000, 161.000000) rotate(-315.000000) translate(-164.000000, -161.000000) " points="164 158 167 164 161 164"></polygon>
            <polygon id="Rectangle-8-Copy-3" fill="#0F3980" transform="translate(44.000000, 101.000000) rotate(-315.000000) translate(-44.000000, -101.000000) " points="44 98 47 104 41 104"></polygon>
            <polygon id="Rectangle-8-Copy-4" fill="#FF262E" transform="translate(5.000000, 142.000000) rotate(-165.000000) translate(-5.000000, -142.000000) " points="5 138 9 146 1 146"></polygon>
        </g>
    </g>
</svg>