<?xml version="1.0" encoding="UTF-8"?>
<svg width="309px" height="273px" viewBox="0 0 309 273" version="1.1" xmlns="http://www.w3.org/2000/svg" xmlns:xlink="http://www.w3.org/1999/xlink">
    <!-- Generator: Sketch 48.2 (47327) - http://www.bohemiancoding.com/sketch -->
    <title>Group 2</title>
    <desc>Created with Sketch.</desc>
    <defs></defs>
    <g id="Success-screen-Copy-9" stroke="none" stroke-width="1" fill="none" fill-rule="evenodd" transform="translate(-25.000000, -82.000000)">
        <g id="Group-2" transform="translate(25.000000, 82.000000)">
            <circle id="Oval-11-Copy-6" fill="#FCB430" opacity="0.200000003" cx="156.5" cy="107.5" r="107.5"></circle>
            <circle id="Oval-11-Copy-7" fill="#FCB430" cx="157" cy="108" r="81"></circle>
            <g id="Group-2-Copy-2" transform="translate(48.000000, 46.000000) scale(-1, 1) translate(-48.000000, -46.000000) translate(21.000000, 31.000000)" fill="#C6EAF9">
                <ellipse id="Oval-9" cx="10.3235294" cy="19.4594595" rx="10.3235294" ry="10.5405405"></ellipse>
                <ellipse id="Oval-9-Copy" cx="28.1911765" cy="15" rx="14.6911765" ry="15"></ellipse>
                <rect id="Rectangle-7" x="3.17647059" y="17.027027" width="50.8235294" height="12.972973" rx="6.48648649"></rect>
            </g>
            <g id="Group-2-Copy-3" transform="translate(0.000000, 223.000000)" fill="#C6EAF9">
                <circle id="Oval-9" cx="13" cy="24" r="13"></circle>
                <circle id="Oval-9-Copy" cx="35.5" cy="18.5" r="18.5"></circle>
                <rect id="Rectangle-7" x="4" y="21" width="64" height="16" rx="8"></rect>
            </g>
            <g id="Group-17" transform="translate(54.000000, 64.000000)">
                <path d="M71.2273917,192.489307 L92.7118644,181 L115.288136,181 L136.772608,192.489307 C139.375122,193.88106 141,196.59263 141,199.54391 L140.999999,203.447403 C140.999999,204.551972 140.104569,205.447402 139,205.447402 C138.8407,205.447402 138.68197,205.42837 138.527185,205.39071 C123.071349,201.630237 111.562287,199.75 104,199.75 C96.4377091,199.75 84.9286403,201.630238 69.4727936,205.390715 L69.4727884,205.390694 C68.3995409,205.65182 67.3178175,204.993465 67.0566915,203.920218 C67.019032,203.765435 67,203.606706 67,203.447408 L67,199.54391 C67,196.59263 68.6248776,193.88106 71.2273917,192.489307 Z" id="Rectangle-38" fill="#308CFC"></path>
                <path d="M91.3939394,79 L116.606061,79 L201.013236,123.512021 C203.050273,124.586249 204.525574,126.48622 205.06172,128.72587 L207.202441,137.668342 C207.459596,138.742561 206.797235,139.821852 205.723017,140.079007 C205.387958,140.159216 205.037862,140.151511 204.706656,140.056639 L141.818182,122.042573 L66.1818182,122.042573 L3.29334385,140.056639 C2.23147892,140.360805 1.12409245,139.746568 0.819926942,138.684703 C0.725054941,138.353498 0.717350085,138.003401 0.797559099,137.668342 L2.93828043,128.72587 C3.47442591,126.48622 4.94972732,124.586249 6.98676358,123.512021 L91.3939394,79 Z" id="Rectangle-33" fill="#308CFC"></path>
                <rect id="Rectangle-37" fill="#C6EAF9" x="135" y="81" width="13" height="25" rx="2"></rect>
                <rect id="Rectangle-37-Copy" fill="#C6EAF9" x="61" y="81" width="13" height="25" rx="2"></rect>
                <path d="M63,81 L72,81 C73.1045695,81 74,81.8954305 74,83 L74,84 L61,84 L61,83 C61,81.8954305 61.8954305,81 63,81 Z" id="Rectangle-37-Copy-4" fill="#227FEF"></path>
                <path d="M137,81 L146,81 C147.104569,81 148,81.8954305 148,83 L148,84 L135,84 L135,83 C135,81.8954305 135.895431,81 137,81 Z" id="Rectangle-37-Copy-5" fill="#227FEF"></path>
                <rect id="Rectangle-37-Copy-2" fill="#C6EAF9" x="161" y="93" width="13" height="25" rx="2"></rect>
                <path d="M163,93 L172,93 C173.104569,93 174,93.8954305 174,95 L174,96 L161,96 L161,95 C161,93.8954305 161.895431,93 163,93 Z" id="Rectangle-37-Copy-6" fill="#227FEF"></path>
                <rect id="Rectangle-37-Copy-3" fill="#C6EAF9" x="35" y="93" width="13" height="25" rx="2"></rect>
                <path d="M37,93 L46,93 C47.1045695,93 48,93.8954305 48,95 L48,96 L35,96 L35,95 C35,93.8954305 35.8954305,93 37,93 Z" id="Rectangle-37-Copy-7" fill="#227FEF"></path>
                <path d="M10.1944134,137.420075 C34.5968572,124.767565 67.6313149,117 104,117 C140.332843,117 173.338027,124.752262 197.733413,137.382681 C160.67274,127.794227 129.428269,123 104,123 C78.5582849,123 47.2897561,127.806692 10.1944134,137.420075 Z" id="Combined-Shape" fill="#227FEF"></path>
                <path d="M90.7025373,13.4007641 C97.0086336,4.46692137 101.608437,1.94817403e-15 104.501946,0 C107.395456,0 111.995259,4.46692093 118.301355,13.4007628 L118.301356,13.4007617 C120.720976,16.8286363 122.001242,20.9306733 121.960952,25.1262977 L120.376671,190.105932 C120.360714,191.767675 119.827659,193.383203 118.851544,194.728134 C111.946116,204.242711 107.162917,209 104.501946,209 C101.840976,209 97.057776,204.24271 90.1523472,194.728131 L90.1523474,194.728131 C89.1762316,193.383199 88.6431767,191.767671 88.6272192,190.105928 L87.0429424,25.1262981 C87.0026524,20.9306745 88.2829174,16.8286381 90.7025373,13.4007641 Z" id="Rectangle-28" fill="#C6EAF9"></path>
                <path d="M104.501946,0 C107.395456,0 111.995259,4.46692093 118.301355,13.4007628 L118.301356,13.4007617 C120.720976,16.8286363 122.001242,20.9306733 121.960952,25.1262977 L120.376671,190.105932 C120.360714,191.767675 119.827659,193.383203 118.851544,194.728134 C111.946116,204.242711 107.162917,209 104.501946,209 L104.501946,0 Z" id="Rectangle-28-Copy" fill="#FFFFFF"></path>
            </g>
            <g id="Group" transform="translate(225.000000, 104.000000)" fill="#C6EAF9">
                <ellipse id="Oval-29" transform="translate(53.685871, 17.186441) scale(-1, 1) translate(-53.685871, -17.186441) " cx="53.6858711" cy="17.1864407" rx="17.3223594" ry="17.1864407"></ellipse>
                <path d="M32.3660441,37.6599823 C41.932919,37.6599823 49.6884035,33.2884193 49.6884035,23.7966102 C49.6884035,14.3048011 41.932919,6.61016949 32.3660441,6.61016949 C22.7991692,6.61016949 15.0436847,14.3048011 15.0436847,23.7966102 C15.0436847,33.2884193 22.7991692,37.6599823 32.3660441,37.6599823 Z" id="Oval-29-Copy" transform="translate(32.366044, 22.135076) scale(-1, 1) translate(-32.366044, -22.135076) "></path>
                <path d="M19.040669,38.6668369 C19.2281856,38.5845457 19.4078168,38.4801612 19.5770784,38.3444724 C22.2979477,36.1632836 24.0379867,32.8256242 24.0379867,29.0847458 C24.0379867,22.5134933 18.6688051,17.1864407 12.045584,17.1864407 C5.42236294,17.1864407 0.0531813865,22.5134933 0.0531813865,29.0847458 C0.0531813865,33.4655807 6.38234392,36.6596111 19.040669,38.6668369 Z" id="Oval-29-Copy-2" transform="translate(12.045584, 27.926639) scale(-1, 1) translate(-12.045584, -27.926639) "></path>
                <path d="M68.8121566,31.4532174 C69.9749509,31.4532174 72.8309609,39.1442357 73.9034225,38.8588408 C79.4487085,37.3831733 83.5328211,32.3450698 83.5328211,26.3569105 C83.5328211,19.2106377 77.7162077,13.4174389 70.5410515,13.4174389 C65.0794454,13.4174389 60.4049782,16.7740147 58.4837878,21.528943 C58.4486238,21.6159737 64.6893538,31.4532174 68.8121566,31.4532174 Z" id="Oval-29-Copy-3" transform="translate(71.008230, 26.142015) scale(-1, 1) rotate(-90.000000) translate(-71.008230, -26.142015) "></path>
                <polygon id="Rectangle-39-Copy" points="5 28 74 28 75.6145935 38.6631622 5.03042603 38.6631622"></polygon>
            </g>
        </g>
    </g>
</svg>