<?xml version="1.0" encoding="UTF-8"?>
<svg width="23px" height="15px" viewBox="0 0 23 15" version="1.1" xmlns="http://www.w3.org/2000/svg" xmlns:xlink="http://www.w3.org/1999/xlink">
    <!-- Generator: Sketch 48.2 (47327) - http://www.bohemiancoding.com/sketch -->
    <title>Combined Shape</title>
    <desc>Created with Sketch.</desc>
    <defs></defs>
    <g id="User-profile" stroke="none" stroke-width="1" fill="none" fill-rule="evenodd" transform="translate(-16.000000, -495.000000)">
        <path d="M18.73,497 C18.3268321,497 18,497.326832 18,497.73 L18,506.588182 C18,506.99135 18.3268321,507.318182 18.73,507.318182 L36.27,507.318182 C36.6731679,507.318182 37,506.99135 37,506.588182 L37,497.73 C37,497.326832 36.6731679,497 36.27,497 L18.73,497 Z M18.73,495 L36.27,495 C37.7777374,495 39,496.222263 39,497.73 L39,506.588182 C39,508.095919 37.7777374,509.318182 36.27,509.318182 L18.73,509.318182 C17.2222626,509.318182 16,508.095919 16,506.588182 L16,497.73 C16,496.222263 17.2222626,495 18.73,495 Z M27.5,505 C28.8807119,505 30,503.880712 30,502.5 C30,501.119288 28.8807119,500 27.5,500 C26.1192881,500 25,501.119288 25,502.5 C25,503.880712 26.1192881,505 27.5,505 Z" id="Combined-Shape" fill="#818282" fill-rule="nonzero"></path>
    </g>
</svg>