<?xml version="1.0" encoding="UTF-8"?>
<svg width="25px" height="14px" viewBox="0 0 25 14" version="1.1" xmlns="http://www.w3.org/2000/svg" xmlns:xlink="http://www.w3.org/1999/xlink">
    <!-- Generator: Sketch 48.2 (47327) - http://www.bohemiancoding.com/sketch -->
    <title>Fill 1</title>
    <desc>Created with Sketch.</desc>
    <defs></defs>
    <g id="User-profile" stroke="none" stroke-width="1" fill="none" fill-rule="evenodd" transform="translate(-13.000000, -548.000000)">
        <path d="M35.403,551.194 C35.074,551.194 34.806,550.926 34.806,550.597 C34.806,550.267 35.074,550 35.403,550 C35.732,550 36,550.267 36,550.597 C36,550.926 35.732,551.194 35.403,551.194 M29.014,557.583 C28.685,557.583 28.417,557.315 28.417,556.986 C28.417,556.656 28.685,556.388 29.014,556.388 C29.343,556.388 29.611,556.656 29.611,556.986 C29.611,557.315 29.343,557.583 29.014,557.583 M22.625,552.472 C22.296,552.472 22.028,552.204 22.028,551.875 C22.028,551.545 22.296,551.277 22.625,551.277 C22.955,551.277 23.222,551.545 23.222,551.875 C23.222,552.204 22.955,552.472 22.625,552.472 M15.597,559.5 C15.268,559.5 15,559.232 15,558.902 C15,558.573 15.268,558.305 15.597,558.305 C15.927,558.305 16.195,558.573 16.195,558.902 C16.195,559.232 15.927,559.5 15.597,559.5 M35.403,548 C33.969,548 32.806,549.163 32.806,550.597 C32.806,551.109 32.959,551.583 33.215,551.986 L30.379,554.785 C29.981,554.538 29.516,554.388 29.014,554.388 C28.516,554.388 28.055,554.536 27.659,554.779 L25.11,552.591 C25.176,552.362 25.222,552.125 25.222,551.875 C25.222,550.441 24.059,549.277 22.625,549.277 C21.191,549.277 20.028,550.441 20.028,551.875 C20.028,552.215 20.098,552.539 20.217,552.837 L16.232,556.392 C16.028,556.341 15.817,556.305 15.597,556.305 C14.163,556.305 13,557.468 13,558.902 C13,560.336 14.163,561.5 15.597,561.5 C17.031,561.5 18.195,560.336 18.195,558.902 C18.195,558.438 18.063,558.008 17.849,557.63 L21.617,554.269 C21.927,554.399 22.268,554.472 22.625,554.472 C23.072,554.472 23.487,554.348 23.854,554.149 L26.486,556.408 C26.444,556.595 26.417,556.787 26.417,556.986 C26.417,558.42 27.58,559.583 29.014,559.583 C30.448,559.583 31.611,558.42 31.611,556.986 C31.611,556.797 31.589,556.615 31.551,556.438 L34.89,553.142 C35.056,553.176 35.227,553.194 35.403,553.194 C36.837,553.194 38,552.031 38,550.597 C38,549.163 36.837,548 35.403,548" id="Fill-1" fill="#818282"></path>
    </g>
</svg>