<?xml version="1.0" encoding="UTF-8"?>
<svg width="25px" height="14px" viewBox="0 0 25 14" version="1.1" xmlns="http://www.w3.org/2000/svg" xmlns:xlink="http://www.w3.org/1999/xlink">
    <!-- Generator: Sketch 48.2 (47327) - http://www.bohemiancoding.com/sketch -->
    <title>Combined Shape</title>
    <desc>Created with Sketch.</desc>
    <defs></defs>
    <g id="conformation" stroke="none" stroke-width="1" fill="none" fill-rule="evenodd" transform="translate(-15.000000, -255.000000)" opacity="0.5">
        <path d="M38,259.999797 C38,258.629875 33.3138717,257 27.5003224,257 C21.6866708,257 17,258.629937 17,259.999797 C17,261.369658 21.6866708,262.999595 27.5003224,262.999595 C33.3138717,262.999595 38,261.36972 38,259.999797 Z M40,259.999797 C40,263.048192 34.3894293,264.999595 27.5003224,264.999595 C20.6110719,264.999595 15,263.048168 15,259.999797 C15,256.951427 20.6110719,255 27.5003224,255 C34.3894293,255 40,256.951403 40,259.999797 Z M38,262.818481 C38,263.080996 38,263.474768 38,263.999797 C38,265.369889 33.3135944,267.000203 27.5003224,267.000203 C21.6869481,267.000203 17,265.369827 17,263.999797 C17,263.472978 17,263.077863 17,262.814453 C16.4899699,262.495199 16.0692444,262.164907 15.7378235,261.823578 C15.4064026,261.482249 15.1604614,260.95756 15,260.249512 L15,263.999797 C15,267.048231 20.611461,269.000203 27.5003224,269.000203 C34.3890402,269.000203 40,267.048254 40,263.999797 L40,260 C39.946167,260.720378 39.7452799,261.26829 39.3973389,261.643738 C39.0493978,262.019185 38.5836182,262.410767 38,262.818481 Z" id="Combined-Shape" fill="#0B0D0E" fill-rule="nonzero"></path>
    </g>
</svg>