<?xml version="1.0" encoding="UTF-8"?>
<svg width="21px" height="15px" viewBox="0 0 21 15" version="1.1" xmlns="http://www.w3.org/2000/svg" xmlns:xlink="http://www.w3.org/1999/xlink">
    <!-- Generator: Sketch 48.2 (47327) - http://www.bohemiancoding.com/sketch -->
    <title>Combined Shape</title>
    <desc>Created with Sketch.</desc>
    <defs></defs>
    <g id="User-profile" stroke="none" stroke-width="1" fill="none" fill-rule="evenodd" transform="translate(-16.000000, -314.000000)">
        <path d="M18.73,314 L34.27,314 C35.7777374,314 37,315.222263 37,316.73 L37,325.588182 C37,327.095919 35.7777374,328.318182 34.27,328.318182 L18.73,328.318182 C17.2222626,328.318182 16,327.095919 16,325.588182 L16,316.73 C16,315.222263 17.2222626,314 18.73,314 Z M18.73,316 C18.3268321,316 18,316.326832 18,316.73 L18,325.588182 C18,325.99135 18.3268321,326.318182 18.73,326.318182 L34.27,326.318182 C34.6731679,326.318182 35,325.99135 35,325.588182 L35,316.73 C35,316.326832 34.6731679,316 34.27,316 L18.73,316 Z M18.0466938,317.452194 C19.3846153,318.485874 21.3916317,320.036498 24.067743,322.104065 C25.5081877,323.216955 27.5183792,323.216955 28.9588239,322.104065 C31.6411335,320.031709 33.6528657,318.477442 34.9940205,317.441264 L34.9940205,316.959976 C35.0417996,316.634852 34.9731547,316.387566 34.7880859,316.218119 C34.6030172,316.048672 34.3798472,315.976081 34.118576,316.000346 L33.5877808,316.000346 C32.287397,317.005025 30.3368213,318.512042 27.7360537,320.521399 C27.0158313,321.077844 26.0107356,321.077844 25.2905132,320.521399 C22.6962924,318.5171 20.7506242,317.013874 19.4535087,316.011721 C19.041448,315.99612 18.769795,315.99612 18.6385498,316.011721 C18.3803628,316.042411 18.2732024,316.117154 18.2120768,316.218119 C18.1458847,316.327453 18.080536,316.399537 18.0466938,316.524063 C17.9356105,316.932806 17.9945051,317.411873 18.0466938,317.452194 Z" id="Combined-Shape" fill="#818283" fill-rule="nonzero"></path>
    </g>
</svg>