<?xml version="1.0" encoding="UTF-8"?>
<svg width="16px" height="23px" viewBox="0 0 16 23" version="1.1" xmlns="http://www.w3.org/2000/svg" xmlns:xlink="http://www.w3.org/1999/xlink">
    <!-- Generator: Sketch 48.2 (47327) - http://www.bohemiancoding.com/sketch -->
    <title>Combined Shape</title>
    <desc>Created with Sketch.</desc>
    <defs></defs>
    <g id="User-profile" stroke="none" stroke-width="1" fill="none" fill-rule="evenodd" transform="translate(-17.000000, -357.000000)">
        <path d="M31,360.73 C31,359.774547 30.2254526,359 29.27,359 L20.73,359 C19.7745474,359 19,359.774547 19,360.73 L19,376.27 C19,377.225453 19.7745474,378 20.73,378 L29.27,378 C30.2254526,378 31,377.225453 31,376.27 L31,360.73 Z M33,360.73 L33,376.27 C33,378.330022 31.3300221,380 29.27,380 L20.73,380 C18.6699779,380 17,378.330022 17,376.27 L17,360.73 C17,358.669978 18.6699779,357 20.73,357 L29.27,357 C31.3300221,357 33,358.669978 33,360.73 Z M25.5,376.5 C24.3954305,376.5 23.5,375.604569 23.5,374.5 C23.5,373.395431 24.3954305,372.5 25.5,372.5 C26.6045695,372.5 27.5,373.395431 27.5,374.5 C27.5,375.604569 26.6045695,376.5 25.5,376.5 Z M25.5,375.5 C26.0522847,375.5 26.5,375.052285 26.5,374.5 C26.5,373.947715 26.0522847,373.5 25.5,373.5 C24.9477153,373.5 24.5,373.947715 24.5,374.5 C24.5,375.052285 24.9477153,375.5 25.5,375.5 Z" id="Combined-Shape" fill="#818283" fill-rule="nonzero"></path>
    </g>
</svg>