<?xml version="1.0" encoding="UTF-8"?>
<svg width="20px" height="19px" viewBox="0 0 20 19" version="1.1" xmlns="http://www.w3.org/2000/svg" xmlns:xlink="http://www.w3.org/1999/xlink">
    <!-- Generator: Sketch 48.2 (47327) - http://www.bohemiancoding.com/sketch -->
    <title>Combined Shape</title>
    <desc>Created with Sketch.</desc>
    <defs></defs>
    <g id="conformation" stroke="none" stroke-width="1" fill="none" fill-rule="evenodd" transform="translate(-16.000000, -101.000000)">
        <path d="M28.3634458,101.000492 L22.0004857,114.885596 L27.4876601,112.201677 C28.0452964,111.928923 28.6979729,111.930567 29.254228,112.206127 L34.6410788,114.874691 L28.3634458,101.000492 Z M27.5389781,99.1783353 C28.5453272,98.7229944 29.7302611,99.1696748 30.1856019,100.176024 L36.463235,114.050223 C36.7104585,114.596612 36.6994449,115.225104 36.4332294,115.762495 C35.9429088,116.752272 34.7430522,117.157162 33.7532747,116.666841 L28.3664239,113.998278 L22.8792495,116.682196 C22.3406765,116.945626 21.7123318,116.953547 21.1672895,116.703777 C20.1631355,116.243615 19.7221426,115.056553 20.1823042,114.052399 L26.5452642,100.167295 C26.7463268,99.7285411 27.0992649,99.3772916 27.5389781,99.1783353 Z M27.3429121,103.231688 L27.3456892,112.272475 C27.705756,112.087111 28.0443587,111.994429 28.3614973,111.994429 C28.678636,111.994429 29.0067,112.087111 29.3456892,112.272475 L29.3456892,103.177352 L28.3614973,101.004225 L27.3429121,103.231688 Z" id="Combined-Shape" fill="#858686" fill-rule="nonzero" transform="translate(28.320540, 107.942798) rotate(-315.000000) translate(-28.320540, -107.942798) "></path>
    </g>
</svg>