<?xml version="1.0" encoding="UTF-8"?>
<svg width="16px" height="18px" viewBox="0 0 16 18" version="1.1" xmlns="http://www.w3.org/2000/svg" xmlns:xlink="http://www.w3.org/1999/xlink">
    <!-- Generator: Sketch 49.1 (51147) - http://www.bohemiancoding.com/sketch -->
    <title>Combined Shape</title>
    <desc>Created with Sketch.</desc>
    <defs></defs>
    <g id="UI" stroke="none" stroke-width="1" fill="none" fill-rule="evenodd">
        <g id="Add-card" transform="translate(-191.000000, -262.000000)" fill="#818283" fill-rule="nonzero">
            <path d="M192,262 L206.002829,262 C206.555114,262 207.002829,262.447715 207.002829,263 L207.002829,269.870197 C207.002829,273.0789 205.294507,276.044921 202.519032,277.655049 L199.503215,279.404606 C199.1929,279.584628 198.809929,279.584628 198.499614,279.404606 L195.483797,277.655049 C192.708322,276.044921 191,273.0789 191,269.870197 L191,263 C191,262.447715 191.447715,262 192,262 Z M193,269.870197 C193,272.365855 194.328695,274.67276 196.487398,275.925082 L199.001415,277.383531 L201.515431,275.925082 C203.674134,274.67276 205.002829,272.365855 205.002829,269.870197 L205.002829,264 L193,264 L193,269.870197 Z M203.486907,274.233754 L193.010016,264.556724 L193.003266,267.273089 L202.024728,275.605806 C202.314429,275.390998 202.579951,275.17036 202.821293,274.943893 C203.062636,274.717427 203.284507,274.480714 203.486907,274.233754 Z" id="Combined-Shape"></path>
        </g>
    </g>
</svg>