<?xml version="1.0" encoding="UTF-8"?>
<svg width="23px" height="24px" viewBox="0 0 23 24" version="1.1" xmlns="http://www.w3.org/2000/svg" xmlns:xlink="http://www.w3.org/1999/xlink">
    <!-- Generator: Sketch 49 (51002) - http://www.bohemiancoding.com/sketch -->
    <title>Shape</title>
    <desc>Created with Sketch.</desc>
    <defs></defs>
    <g id="UI" stroke="none" stroke-width="1" fill="none" fill-rule="evenodd">
        <g id="Hello-user" transform="translate(-15.000000, -41.000000)" fill-rule="nonzero" stroke="#FFFFFF" stroke-width="1.2">
            <path d="M28.64375,52.5 C30.6125,51.66875 31.96875,49.74375 31.96875,47.46875 C31.96875,44.45 29.51875,42 26.5,42 C23.48125,42 21.03125,44.45 21.03125,47.46875 C21.03125,49.74375 22.3875,51.66875 24.35625,52.5 C19.675,53.4625 16,57.575 16,62.3 L16,63.6125 C16,63.875 16.175,64.05 16.4375,64.05 L36.5625,64.05 C36.825,64.05 37,63.875 37,63.6125 L37,62.3 C37,57.575 33.325,53.4625 28.64375,52.5 Z M21.90625,47.425 C21.90625,44.8875 23.9625,42.83125 26.5,42.83125 C29.0375,42.83125 31.09375,44.8875 31.09375,47.425 C31.09375,49.9625 29.0375,52.0625 26.5,52.0625 C23.9625,52.0625 21.90625,49.9625 21.90625,47.425 Z M36.125,63.175 L16.875,63.175 L16.875,62.3 C16.875,57.3125 21.29375,53.1125 26.5,53.1125 C31.70625,53.1125 36.125,57.3125 36.125,62.3 L36.125,63.175 Z" id="Shape"></path>
        </g>
    </g>
</svg>