<?xml version="1.0" encoding="UTF-8"?>
<svg width="20px" height="21px" viewBox="0 0 20 21" version="1.1" xmlns="http://www.w3.org/2000/svg" xmlns:xlink="http://www.w3.org/1999/xlink">
    <!-- Generator: Sketch 48.2 (47327) - http://www.bohemiancoding.com/sketch -->
    <title>Combined Shape Copy</title>
    <desc>Created with Sketch.</desc>
    <defs></defs>
    <g id="conformation" stroke="none" stroke-width="1" fill="none" fill-rule="evenodd" transform="translate(-17.000000, -202.000000)">
        <path d="M19,219.400435 C19,219.803603 19.3268321,220.130435 19.73,220.130435 L34.27,220.130435 C34.6731679,220.130435 35,219.803603 35,219.400435 L35,208.338696 C35,207.935528 34.6731679,207.608696 34.27,207.608696 L19,207.608696 L19,219.400435 Z M17,205.608696 L34.27,205.608696 C35.7777374,205.608696 37,206.830958 37,208.338696 L37,219.400435 C37,220.908172 35.7777374,222.130435 34.27,222.130435 L19.73,222.130435 C18.2222626,222.130435 17,220.908172 17,219.400435 L17,205.608696 Z M30.6521739,205.35 L30.6521739,204.73 C30.6521739,204.326832 30.3253418,204 29.9221739,204 L19.73,204 C19.3268321,204 19,204.326832 19,204.73 L19,205.35 L30.6521739,205.35 Z M19.73,202 L29.9221739,202 C31.4299113,202 32.6521739,203.222263 32.6521739,204.73 L32.6521739,207.35 L17,207.35 L17,204.73 C17,203.222263 18.2222626,202 19.73,202 Z M35,212.826087 L31.9039131,212.826087 C31.5007452,212.826087 31.173913,213.152919 31.173913,213.556087 L31.173913,214.183043 C31.173913,214.586211 31.5007452,214.913043 31.9039131,214.913043 L35,214.913043 L35,212.826087 Z M29.173913,214.183043 L29.173913,213.556087 C29.173913,212.04835 30.3961757,210.826087 31.9039131,210.826087 L37,210.826087 L37,216.913043 L31.9039131,216.913043 C30.3961757,216.913043 29.173913,215.690781 29.173913,214.183043 Z" id="Combined-Shape-Copy" fill="#858686" fill-rule="nonzero"></path>
    </g>
</svg>