<?xml version="1.0" encoding="UTF-8"?>
<svg width="197px" height="166px" viewBox="0 0 197 166" version="1.1" xmlns="http://www.w3.org/2000/svg" xmlns:xlink="http://www.w3.org/1999/xlink">
    <!-- Generator: Sketch 48.2 (47327) - http://www.bohemiancoding.com/sketch -->
    <title>Fill 1 Copy 28</title>
    <desc>Created with Sketch.</desc>
    <defs></defs>
    <g id="Dashboar-card" stroke="none" stroke-width="1" fill="none" fill-rule="evenodd" transform="translate(-147.000000, -100.000000)" opacity="0.100000001">
        <g id="Group-3" transform="translate(16.000000, 100.000000)" fill="#FFFFFF">
            <g id="Fill-1-Copy-28">
                <path d="M251.499889,154.138365 L166.677243,59.0585122 C194.66604,65.58388 223.079397,68.869754 251.499889,68.869754 C279.909677,68.869754 308.319466,65.58388 336.301128,59.0620799 L251.499889,154.138365 Z M343.390196,38.8758958 C283.006462,54.9877388 220.214514,55.0055774 159.827212,38.9329794 C222.654837,-3.85117053 281.689972,-3.87257687 343.390196,38.8758958 Z M370.868808,46.7855406 C371.093575,46.3859555 371.271961,45.964964 371.432509,45.5332693 C371.482457,45.4012635 371.546676,45.2728255 371.589489,45.1372519 C371.717927,44.7340991 371.796417,44.3202431 371.867771,43.8992516 C371.896313,43.7244331 371.946261,43.5567501 371.9641,43.3819316 C372.003345,43.0322946 371.985506,42.6755222 371.981938,42.3187497 C371.981938,42.0939831 372.014048,41.8692165 371.992642,41.6444499 C371.992642,41.6123403 371.978371,41.5802308 371.974803,41.5481213 C371.956964,41.3661674 371.899881,41.1806457 371.871339,40.995124 C371.799984,40.5669971 371.732198,40.1424379 371.60376,39.7321496 C371.600192,39.7321496 371.600192,39.7285819 371.600192,39.7250142 C371.589489,39.6893369 371.57165,39.6607951 371.557379,39.6286856 C371.018653,37.9875324 370.026825,36.5140623 368.649684,35.4223387 C290.609282,-26.4598395 213.988835,-26.4776781 134.41788,35.3902291 C133.661522,35.9753359 133.051441,36.699584 132.526986,37.4809156 C132.387845,37.6878436 132.227297,37.876933 132.102427,38.0981319 C131.913337,38.4370657 131.781332,38.8045413 131.638623,39.1684492 C131.5637,39.3575386 131.460236,39.5252216 131.396017,39.7250142 C131.39245,39.7357173 131.39245,39.7464205 131.388882,39.7606914 C131.299689,40.0425416 131.264012,40.3422305 131.20336,40.6347839 C131.139141,40.9451759 131.049948,41.2555679 131.017839,41.5659599 C131.017839,41.5873663 131.010703,41.6052049 131.010703,41.6230435 C130.992865,41.797862 131.021406,41.9691128 131.014271,42.1403635 C131,42.5542195 130.985729,42.9645078 131.028542,43.3676607 C131.049948,43.571021 131.107032,43.7601104 131.142709,43.9599029 C131.210496,44.3452172 131.274715,44.7305314 131.39245,45.1051424 C131.456669,45.304935 131.54943,45.4904567 131.624352,45.6831138 C131.767061,46.0434539 131.90977,46.3966586 132.095291,46.7355924 C132.195188,46.9139787 132.31649,47.0745262 132.42709,47.2493447 C132.641153,47.5811431 132.862352,47.905806 133.119228,48.2090626 C133.162041,48.2590107 133.190583,48.319662 133.236963,48.3696102 L244.846083,173.475431 C246.533616,175.37346 248.956101,176.458048 251.499889,176.458048 C254.043676,176.458048 256.466161,175.37346 258.153694,173.475431 L369.759246,48.3482038 C369.780652,48.3267975 369.791356,48.2982557 369.812762,48.2768493 C370.137425,47.8986706 370.422843,47.4955177 370.683287,47.0709585 C370.743938,46.97463 370.811725,46.8854369 370.868808,46.7855406 Z"></path>
            </g>
        </g>
    </g>
</svg>