<?xml version="1.0" encoding="UTF-8"?>
<svg width="21px" height="17px" viewBox="0 0 21 17" version="1.1" xmlns="http://www.w3.org/2000/svg" xmlns:xlink="http://www.w3.org/1999/xlink">
    <!-- Generator: Sketch 49.1 (51147) - http://www.bohemiancoding.com/sketch -->
    <title>Combined Shape</title>
    <desc>Created with Sketch.</desc>
    <defs></defs>
    <g id="UI" stroke="none" stroke-width="1" fill="none" fill-rule="evenodd">
        <g id="Add-card" transform="translate(-16.000000, -260.000000)" fill="#818283" fill-rule="nonzero">
            <path d="M18.73,264.584717 C18.3268321,264.584717 18,264.911549 18,265.314717 L18,274.172899 C18,274.576066 18.3268321,274.902899 18.73,274.902899 L34.27,274.902899 C34.6731679,274.902899 35,274.576066 35,274.172899 L35,265.314717 C35,264.911549 34.6731679,264.584717 34.27,264.584717 L18.73,264.584717 Z M18.73,262.584717 L34.27,262.584717 C35.7777374,262.584717 37,263.806979 37,265.314717 L37,274.172899 C37,275.680636 35.7777374,276.902899 34.27,276.902899 L18.73,276.902899 C17.2222626,276.902899 16,275.680636 16,274.172899 L16,265.314717 C16,263.806979 17.2222626,262.584717 18.73,262.584717 Z M21,261 L21,262.591248 L23,262.591248 L23,261 C23,260.447715 22.5522847,260 22,260 C21.4477153,260 21,260.447715 21,261 Z M30,261 L30,262.588379 L32,262.588379 L32,261 C32,260.447715 31.5522847,260 31,260 C30.4477153,260 30,260.447715 30,261 Z M21,269.584717 L32,269.584717 C32.2761424,269.584717 32.5,269.360859 32.5,269.084717 C32.5,268.808574 32.2761424,268.584717 32,268.584717 L21,268.584717 C20.7238576,268.584717 20.5,268.808574 20.5,269.084717 C20.5,269.360859 20.7238576,269.584717 21,269.584717 Z M21,272.584717 L32,272.584717 C32.2761424,272.584717 32.5,272.360859 32.5,272.084717 C32.5,271.808574 32.2761424,271.584717 32,271.584717 L21,271.584717 C20.7238576,271.584717 20.5,271.808574 20.5,272.084717 C20.5,272.360859 20.7238576,272.584717 21,272.584717 Z" id="Combined-Shape"></path>
        </g>
    </g>
</svg>