<?xml version="1.0" encoding="UTF-8"?>
<svg width="23px" height="15px" viewBox="0 0 23 15" version="1.1" xmlns="http://www.w3.org/2000/svg" xmlns:xlink="http://www.w3.org/1999/xlink">
    <!-- Generator: Sketch 48.2 (47327) - http://www.bohemiancoding.com/sketch -->
    <title>Combined Shape</title>
    <desc>Created with Sketch.</desc>
    <defs></defs>
    <g id="User-profile" stroke="none" stroke-width="1" fill="none" fill-rule="evenodd" transform="translate(-16.000000, -444.000000)">
        <path d="M18.73,446 C18.3268321,446 18,446.326832 18,446.73 L18,455.588182 C18,455.99135 18.3268321,456.318182 18.73,456.318182 L36.27,456.318182 C36.6731679,456.318182 37,455.99135 37,455.588182 L37,446.73 C37,446.326832 36.6731679,446 36.27,446 L18.73,446 Z M18.73,444 L36.27,444 C37.7777374,444 39,445.222263 39,446.73 L39,455.588182 C39,457.095919 37.7777374,458.318182 36.27,458.318182 L18.73,458.318182 C17.2222626,458.318182 16,457.095919 16,455.588182 L16,446.73 C16,445.222263 17.2222626,444 18.73,444 Z M18.0011902,450 L37.0020142,450 L37.0020142,448 L18.0011902,448 L18.0011902,450 Z" id="Combined-Shape" fill="#858686" fill-rule="nonzero"></path>
    </g>
</svg>