<?xml version="1.0" encoding="UTF-8"?>
<svg width="23px" height="15px" viewBox="0 0 23 15" version="1.1" xmlns="http://www.w3.org/2000/svg" xmlns:xlink="http://www.w3.org/1999/xlink">
    <!-- Generator: Sketch 48.2 (47327) - http://www.bohemiancoding.com/sketch -->
    <title>Combined Shape</title>
    <desc>Created with Sketch.</desc>
    <defs></defs>
    <g id="conformation" stroke="none" stroke-width="1" fill="none" fill-rule="evenodd" transform="translate(-16.000000, -153.000000)">
        <path d="M18.73,155 C18.3268321,155 18,155.326832 18,155.73 L18,164.588182 C18,164.99135 18.3268321,165.318182 18.73,165.318182 L36.27,165.318182 C36.6731679,165.318182 37,164.99135 37,164.588182 L37,155.73 C37,155.326832 36.6731679,155 36.27,155 L18.73,155 Z M18.73,153 L36.27,153 C37.7777374,153 39,154.222263 39,155.73 L39,164.588182 C39,166.095919 37.7777374,167.318182 36.27,167.318182 L18.73,167.318182 C17.2222626,167.318182 16,166.095919 16,164.588182 L16,155.73 C16,154.222263 17.2222626,153 18.73,153 Z M18.0011902,159 L37.0020142,159 L37.0020142,157 L18.0011902,157 L18.0011902,159 Z" id="Combined-Shape" fill="#858686" fill-rule="nonzero"></path>
    </g>
</svg>