<?xml version="1.0" encoding="UTF-8"?>
<svg width="23px" height="18px" viewBox="0 0 23 18" version="1.1" xmlns="http://www.w3.org/2000/svg" xmlns:xlink="http://www.w3.org/1999/xlink">
    <!-- Generator: Sketch 48.2 (47327) - http://www.bohemiancoding.com/sketch -->
    <title>Combined Shape</title>
    <desc>Created with Sketch.</desc>
    <defs></defs>
    <g id="conformation" stroke="none" stroke-width="1" fill="none" fill-rule="evenodd" transform="translate(-16.000000, -305.000000)">
        <path d="M18.0875271,319.583925 C19.0169422,319.029537 20.0789962,318.736842 21.1611969,318.736842 L35,318.736842 C36.1045695,318.736842 37,317.841412 37,316.736842 L37,309 C37,307.895431 36.1045695,307 35,307 L20,307 C18.8954305,307 18,307.895431 18,309 L18,319.636134 L18.0875271,319.583925 Z M20,305 L35,305 C37.209139,305 39,306.790861 39,309 L39,316.736842 C39,318.945981 37.209139,320.736842 35,320.736842 L21.1611969,320.736842 C20.4397298,320.736842 19.7316938,320.931972 19.1120837,321.301564 L17.5122783,322.255834 C17.0379654,322.538757 16.424104,322.383606 16.1411805,321.909293 C16.0487825,321.75439 16,321.577381 16,321.397014 L16,309 C16,306.790861 17.790861,305 20,305 Z M22.5095343,315.49098 L32.502412,315.49098 L32.502412,314.49098 L22.5095343,314.49098 L22.5095343,315.49098 Z M22.5095343,311.859401 L32.502412,311.859401 L32.502412,310.859401 L22.5095343,310.859401 L22.5095343,311.859401 Z" id="Combined-Shape" fill="#818282" fill-rule="nonzero"></path>
    </g>
</svg>