<?xml version="1.0" encoding="UTF-8"?>
<svg width="15px" height="20px" viewBox="0 0 15 20" version="1.1" xmlns="http://www.w3.org/2000/svg" xmlns:xlink="http://www.w3.org/1999/xlink">
    <!-- Generator: Sketch 49.1 (51147) - http://www.bohemiancoding.com/sketch -->
    <title>Combined Shape</title>
    <desc>Created with Sketch.</desc>
    <defs></defs>
    <g id="UI" stroke="none" stroke-width="1" fill="none" fill-rule="evenodd">
        <g id="Password" transform="translate(-16.000000, -164.000000)" fill="#308CFC" fill-rule="nonzero">
            <path d="M18.73,174 L28.27,174 C29.7777374,174 31,175.222263 31,176.73 L31,181.27 C31,182.777737 29.7777374,184 28.27,184 L18.73,184 C17.2222626,184 16,182.777737 16,181.27 L16,176.73 C16,175.222263 17.2222626,174 18.73,174 Z M18.73,176 C18.3268321,176 18,176.326832 18,176.73 L18,181.27 C18,181.673168 18.3268321,182 18.73,182 L28.27,182 C28.6731679,182 29,181.673168 29,181.27 L29,176.73 C29,176.326832 28.6731679,176 28.27,176 L18.73,176 Z M22,164 L25,164 C26.6568542,164 28,165.343146 28,167 L28,176 L19,176 L19,167 C19,165.343146 20.3431458,164 22,164 Z M21,174 L26,174 L26,167 C26,166.447715 25.5522847,166 25,166 L22,166 C21.4477153,166 21,166.447715 21,167 L21,174 Z M22,179.5 L25,179.5 C25.2761424,179.5 25.5,179.276142 25.5,179 C25.5,178.723858 25.2761424,178.5 25,178.5 L22,178.5 C21.7238576,178.5 21.5,178.723858 21.5,179 C21.5,179.276142 21.7238576,179.5 22,179.5 Z" id="Combined-Shape"></path>
        </g>
    </g>
</svg>