<?xml version="1.0" encoding="UTF-8"?>
<svg width="15px" height="21px" viewBox="0 0 15 21" version="1.1" xmlns="http://www.w3.org/2000/svg" xmlns:xlink="http://www.w3.org/1999/xlink">
    <!-- Generator: Sketch 49 (51002) - http://www.bohemiancoding.com/sketch -->
    <title>Combined Shape Copy</title>
    <desc>Created with Sketch.</desc>
    <defs></defs>
    <g id="UI" stroke="none" stroke-width="1" fill="none" fill-rule="evenodd">
        <g id="Varification-number-" transform="translate(-17.000000, -164.000000)" fill="#308CFC" fill-rule="nonzero">
            <path d="M29.3181818,166.73 C29.3181818,166.326832 28.9913497,166 28.5881818,166 L19.73,166 C19.3268321,166 19,166.326832 19,166.73 L19,182.27 C19,182.673168 19.3268321,183 19.73,183 L28.5881818,183 C28.9913497,183 29.3181818,182.673168 29.3181818,182.27 L29.3181818,166.73 Z M31.3181818,166.73 L31.3181818,182.27 C31.3181818,183.777737 30.0959192,185 28.5881818,185 L19.73,185 C18.2222626,185 17,183.777737 17,182.27 L17,166.73 C17,165.222263 18.2222626,164 19.73,164 L28.5881818,164 C30.0959192,164 31.3181818,165.222263 31.3181818,166.73 Z M27.5210627,177.5 L21.3181818,177.5 C21.0420394,177.5 20.8181818,177.723858 20.8181818,178 C20.8181818,178.276142 21.0420394,178.5 21.3181818,178.5 L27.5210627,178.5 C27.7972051,178.5 28.0210627,178.276142 28.0210627,178 C28.0210627,177.723858 27.7972051,177.5 27.5210627,177.5 Z M24.3181818,170 C23.2136123,170 22.3181818,170.895431 22.3181818,172 C22.3181818,173.104569 23.2136123,174 24.3181818,174 C25.4227513,174 26.3181818,173.104569 26.3181818,172 C26.3181818,170.895431 25.4227513,170 24.3181818,170 Z M24.3181818,169 C25.9750361,169 27.3181818,170.343146 27.3181818,172 C27.3181818,173.656854 25.9750361,175 24.3181818,175 C22.6613276,175 21.3181818,173.656854 21.3181818,172 C21.3181818,170.343146 22.6613276,169 24.3181818,169 Z" id="Combined-Shape-Copy"></path>
        </g>
    </g>
</svg>