<?xml version="1.0" encoding="UTF-8"?>
<svg width="45px" height="45px" viewBox="0 0 45 45" version="1.1" xmlns="http://www.w3.org/2000/svg" xmlns:xlink="http://www.w3.org/1999/xlink">
    <!-- Generator: Sketch 49 (51002) - http://www.bohemiancoding.com/sketch -->
    <title>Group 4</title>
    <desc>Created with Sketch.</desc>
    <defs></defs>
    <g id="UI" stroke="none" stroke-width="1" fill="none" fill-rule="evenodd">
        <g id="Swish-conformation-" transform="translate(-253.000000, -113.000000)" stroke="#308CFC" stroke-width="2">
            <g id="Group-4" transform="translate(254.000000, 114.000000)">
                <g id="Group-29-Copy-7" fill="#FFFFFF">
                    <g id="bag-pin-copy">
                        <path d="M4.76571026,0 C2.14456962,0 0,2.12708374 0,4.72685276 L0,37.8148221 C0,40.4145911 2.14456962,42.5416748 4.76571026,42.5416748 L38.1256821,42.5416748 C40.7468228,42.5416748 42.8913924,40.4145911 42.8913924,37.8148221 L42.8913924,4.72685276 C42.8913924,2.12708374 40.7468228,0 38.1256821,0 L4.76571026,0 Z" id="pin-user-copy-2"></path>
                    </g>
                </g>
                <g id="Group-3-Copy-3" transform="translate(14.000000, 12.000000)">
                    <circle id="Oval" cx="7.5" cy="4.16666667" r="4.16666667"></circle>
                    <path d="M15,16.5267557 C15,12.38462 11.6421356,9.02675565 7.5,9.02675565 C3.35786438,9.02675565 0,12.38462 0,16.5267557 C0,20.6688913 15,20.6688913 15,16.5267557 Z" id="Oval-4"></path>
                </g>
            </g>
        </g>
    </g>
</svg>